<?xml version="1.0" encoding="utf-8"?>
<!-- Generator: Adobe Illustrator 16.0.4, SVG Export Plug-In . SVG Version: 6.00 Build 0)  -->
<!DOCTYPE svg PUBLIC "-//W3C//DTD SVG 1.1//EN" "http://www.w3.org/Graphics/SVG/1.1/DTD/svg11.dtd">
<svg version="1.1" id="Layer_1" xmlns="http://www.w3.org/2000/svg" xmlns:xlink="http://www.w3.org/1999/xlink" x="0px" y="0px"
	 width="210px" height="210px" viewBox="0 0 210 210" enable-background="new 0 0 210 210" xml:space="preserve">
<circle fill="#FFFFFF" cx="104.819" cy="105.93" r="95"/>
<g>
	<path fill="#F99450" d="M197.156,129.02c-0.431,1.79-0.92,3.551-1.46,5.29c-12.061,38.801-48.25,66.98-91.011,66.98
		c-41.51,0-76.819-26.54-89.88-63.58c-0.46-1.29-0.89-2.59-1.279-3.91l18.47-21.77l32.31,27.25l38.53-38.9l34.22,26.1l32.08-59.899
		L197.156,129.02z"/>
	<path fill="#FF7D25" d="M172.326,65.14c-0.55-1.21-1.74-2.01-3.07-2.06c-1.34-0.021-2.58,0.67-3.21,1.84l-30.13,56.28l-30.96-23.61
		c-1.4-1.06-3.37-0.92-4.61,0.33l-36.26,36.61l-29.83-25.181c-1.479-1.239-3.68-1.06-4.93,0.42l-16.95,19.98
		c0.35,1.36,0.73,2.71,1.15,4.05c0.39,1.32,0.819,2.62,1.279,3.91l17.601-20.75l29.64,25c1.4,1.18,3.46,1.08,4.74-0.21l36.37-36.72
		l31.779,24.229c0.82,0.62,1.87,0.86,2.87,0.641c1-0.221,1.86-0.86,2.341-1.771l28.71-53.62l26.84,59.8
		c0.54-1.739,1.029-3.5,1.46-5.29c0.479-1.899,0.899-3.83,1.25-5.779L172.326,65.14z"/>
</g>
<circle fill="#FFFFFF" stroke="#FF7D25" stroke-width="3.7666" stroke-miterlimit="10" cx="32.083" cy="113.271" r="4.304"/>
<circle fill="#FFFFFF" stroke="#FF7D25" stroke-width="3.7666" stroke-miterlimit="10" cx="64.303" cy="139.284" r="4.305"/>
<circle fill="#FFFFFF" stroke="#FF7D25" stroke-width="3.7666" stroke-miterlimit="10" cx="102.925" cy="100.539" r="4.305"/>
<circle fill="#FFFFFF" stroke="#FF7D25" stroke-width="3.7666" stroke-miterlimit="10" cx="137.139" cy="124.979" r="4.305"/>
<circle fill="#FFFFFF" stroke="#FF7D25" stroke-width="3.7666" stroke-miterlimit="10" cx="168.727" cy="66.767" r="4.305"/>
<g>
	<path fill="#FF7D25" d="M104.686,206.29c-42.467,0-80.482-26.892-94.596-66.917c-0.515-1.445-0.961-2.811-1.359-4.158
		c-0.405-1.292-0.816-2.739-1.197-4.221C5.451,122.852,4.396,114.443,4.396,106c0-55.295,44.989-100.28,100.289-100.28
		c55.295,0,100.28,44.985,100.28,100.28c0,6.123-0.553,12.228-1.643,18.146c-0.359,2.003-0.805,4.062-1.319,6.098
		c-0.429,1.784-0.949,3.669-1.532,5.549c-6.216,19.998-18.921,37.954-35.773,50.562C147.265,199.396,126.513,206.29,104.686,206.29z
		 M104.686,15.72c-49.785,0-90.289,40.5-90.289,90.28c0,7.609,0.95,15.183,2.823,22.512c0.337,1.308,0.699,2.586,1.078,3.793
		c0.369,1.248,0.759,2.44,1.218,3.726c12.711,36.05,46.936,60.26,85.17,60.26c19.65,0,38.332-6.205,54.022-17.943
		c15.179-11.355,26.619-27.521,32.214-45.521c0.52-1.672,0.981-3.347,1.373-4.976c0.471-1.867,0.867-3.697,1.19-5.494
		c0.983-5.343,1.48-10.839,1.48-16.355C194.966,56.22,154.466,15.72,104.686,15.72z"/>
</g>
</svg>
