<?xml version="1.0" encoding="utf-8"?>
<!-- Generator: Adobe Illustrator 16.0.4, SVG Export Plug-In . SVG Version: 6.00 Build 0)  -->
<!DOCTYPE svg PUBLIC "-//W3C//DTD SVG 1.1//EN" "http://www.w3.org/Graphics/SVG/1.1/DTD/svg11.dtd">
<svg version="1.1" id="Layer_1" xmlns="http://www.w3.org/2000/svg" xmlns:xlink="http://www.w3.org/1999/xlink" x="0px" y="0px"
	 width="210px" height="210px" viewBox="0 0 210 210" enable-background="new 0 0 210 210" xml:space="preserve">
<path fill="#FF7D25" d="M199.585,80.22c0-0.02,0-0.03-0.01-0.04c0-0.01,0-0.02-0.01-0.029c-0.011-0.04-0.021-0.091-0.03-0.131
	c0-0.01,0-0.02-0.01-0.02c0,0,0,0,0-0.01c-0.01-0.03-0.021-0.07-0.03-0.101c-0.01-0.04-0.01-0.05-0.01-0.05
	c-6.57-24-22.69-44.96-43.78-58.04c-21.13-13.1-46.95-17.76-71.34-13.03c-23.771,4.61-45.561,18.131-60.22,37.4
	C9.085,65.97,1.766,90.88,4.005,115.68c2.21,24.471,13.61,47.51,31.61,64.21c18.42,17.101,43.03,26.721,68.16,26.62
	c24.85-0.1,49.16-9.689,67.38-26.609c18.05-16.761,29.55-39.98,31.64-64.551C203.795,103.56,202.735,91.63,199.585,80.22z"/>
<circle fill="#FFFFFF" cx="103.796" cy="106.653" r="90.118"/>
<g>
	<g>
		<g>
			<path fill="#F99450" d="M126.148,18.96v94.72h-90.26V46.06c0.65-0.72,1.32-1.439,2-2.14c2.4-2.5,4.94-4.86,7.61-7.061
				c1.029-0.859,2.09-1.699,3.16-2.5c1.14-0.869,2.3-1.699,3.479-2.5c5.45-3.739,11.33-6.89,17.54-9.369
				c2.32-0.94,4.69-1.771,7.1-2.5c3.36-1.03,6.79-1.87,10.301-2.5c5.26-0.95,10.67-1.45,16.199-1.45c7.181,0,14.17,0.84,20.87,2.42
				C124.818,18.62,125.488,18.779,126.148,18.96z"/>
			<path fill="#FF7D25" d="M126.398,18.87c-0.66-0.181-1.33-0.34-2-0.5v94.31h-86.26V42.98c-0.68,0.7-1.35,1.42-2,2.14
				c-0.68,0.75-1.35,1.521-2,2.3v67.26c0,1.101,0.9,2,2,2h90.26c1.11,0,2-0.899,2-2V19.41
				C127.729,19.22,127.068,19.04,126.398,18.87z"/>
		</g>
		<g>
			<g>
				<path fill="#FFFFFF" d="M118.219,17.4v5h-48.29c2.32-0.94,4.69-1.771,7.1-2.5c3.36-1.03,6.79-1.87,10.301-2.5H118.219z"/>
			</g>
			<g>
				<path fill="#FFFFFF" d="M118.219,31.77v5h-72.47c1.029-0.859,2.09-1.699,3.16-2.5c1.14-0.869,2.3-1.699,3.479-2.5H118.219z"/>
			</g>
			<g>
				<rect x="43.409" y="46.142" fill="#FFFFFF" width="74.806" height="5"/>
			</g>
			<g>
				<rect x="43.409" y="60.514" fill="#FFFFFF" width="74.806" height="5"/>
			</g>
			<g>
				<rect x="43.41" y="74.887" fill="#FFFFFF" width="74.806" height="5"/>
			</g>
			<g>
				<line fill="none" x1="43.41" y1="91.759" x2="89.939" y2="91.759"/>
				<rect x="43.41" y="89.259" fill="#FFFFFF" width="46.529" height="5"/>
			</g>
		</g>
	</g>
	<g>
		<g>
			<path fill="#F99450" d="M24.068,62.87v51.81h-10.97c-0.06-0.67-0.11-1.33-0.15-2c-0.14-1.97-0.199-3.95-0.199-5.95
				c0-14.359,3.35-27.949,9.319-40.029C22.698,65.41,23.369,64.13,24.068,62.87z"/>
			<path fill="#FF7D25" d="M24.068,62.87c-0.699,1.26-1.37,2.54-2,3.83v45.979h-9.12c0.04,0.67,0.091,1.33,0.15,2
				c0.05,0.67,0.12,1.34,0.2,2h10.77c1.101,0,2-0.899,2-2V59.43C25.379,60.56,24.709,61.7,24.068,62.87z"/>
		</g>
	</g>
	<g>
		<g>
			<path fill="#F99450" d="M190.259,79.89c-0.26-0.84-0.53-1.67-0.82-2.5c-0.279-0.84-0.58-1.68-0.899-2.5
				c-1.2-3.22-2.58-6.35-4.141-9.38c-0.43-0.84-0.87-1.68-1.33-2.5c-0.46-0.84-0.939-1.68-1.43-2.5c-1.93-3.26-4.07-6.39-6.4-9.37
				c-0.64-0.85-1.319-1.68-2.01-2.5c-0.7-0.85-1.42-1.68-2.16-2.5c-3.01-3.359-6.27-6.5-9.76-9.37c-1.03-0.859-2.09-1.699-3.16-2.5
				c-1.14-0.869-2.3-1.699-3.479-2.5c-4.46-3.06-9.21-5.729-14.19-7.96c-0.66-0.3-1.33-0.58-2-0.859v91.729h55.48
				c0.06-0.67,0.109-1.33,0.149-2c0.141-1.97,0.2-3.95,0.2-5.95C194.309,97.39,192.889,88.38,190.259,79.89z"/>
			<path fill="#FF7D25" d="M140.479,112.68V23.81c-0.66-0.3-1.33-0.58-2-0.859c-0.66-0.28-1.33-0.55-2-0.811v92.54
				c0,1.101,0.891,2,2,2h55.28c0.08-0.66,0.15-1.33,0.2-2c0.06-0.67,0.109-1.33,0.149-2H140.479z"/>
		</g>
		<g>
			<g>
				<path fill="#FFFFFF" d="M161.309,36.77h-15.57v-5h8.931c1.18,0.801,2.34,1.631,3.479,2.5
					C159.219,35.07,160.278,35.91,161.309,36.77z"/>
			</g>
			<g>
				<path fill="#FFFFFF" d="M175.238,51.14h-29.5v-5h25.33c0.74,0.82,1.46,1.65,2.16,2.5C173.919,49.46,174.599,50.29,175.238,51.14
					z"/>
			</g>
			<g>
				<path fill="#FFFFFF" d="M184.398,65.51h-38.66v-5h35.9c0.49,0.82,0.97,1.66,1.43,2.5C183.528,63.83,183.969,64.67,184.398,65.51
					z"/>
			</g>
			<g>
				<path fill="#FFFFFF" d="M190.259,79.89h-44.51v-5h42.79c0.319,0.82,0.62,1.66,0.899,2.5
					C189.729,78.22,189.999,79.05,190.259,79.89z"/>
			</g>
			<g>
				<rect x="145.744" y="89.259" fill="#FFFFFF" width="39.601" height="5"/>
			</g>
		</g>
	</g>
	<g>
		<g>
			<path fill="#F99450" d="M62.398,126.28v61.359c-0.67-0.33-1.34-0.68-2-1.04c-2.529-1.37-4.979-2.859-7.35-4.46
				c-1.2-0.8-2.39-1.63-3.54-2.5c-1.09-0.8-2.16-1.64-3.21-2.5c-3.53-2.87-6.851-6-9.91-9.37c-0.74-0.819-1.47-1.649-2.18-2.5
				c-0.7-0.819-1.38-1.649-2.05-2.5c-2.341-2.97-4.511-6.1-6.471-9.369c-0.5-0.82-0.979-1.65-1.45-2.5
				c-0.46-0.82-0.909-1.66-1.35-2.5c-3.28-6.311-5.83-13.051-7.55-20.12c-0.17-0.66-0.32-1.33-0.46-2H62.398z"/>
			<path fill="#FF7D25" d="M62.398,124.28H14.459c0.12,0.67,0.26,1.34,0.42,2c0.14,0.67,0.29,1.34,0.46,2h45.06V186.6
				c0.66,0.36,1.33,0.71,2,1.04c0.67,0.351,1.33,0.681,2,0.99v-62.35C64.398,125.18,63.509,124.28,62.398,124.28z"/>
		</g>
		<g>
			<g>
				<path fill="#FFFFFF" d="M54.219,148.4v5h-28.53c-0.5-0.82-0.979-1.65-1.45-2.5c-0.46-0.82-0.909-1.66-1.35-2.5H54.219z"/>
			</g>
			<g>
				<path fill="#FFFFFF" d="M54.219,162.77v5h-17.83c-0.74-0.819-1.47-1.649-2.18-2.5c-0.7-0.819-1.38-1.649-2.05-2.5H54.219z"/>
			</g>
			<g>
				<path fill="#FFFFFF" d="M54.219,177.14v5h-1.17c-1.2-0.8-2.39-1.63-3.54-2.5c-1.09-0.8-2.16-1.64-3.21-2.5H54.219z"/>
			</g>
		</g>
	</g>
	<g>
		<g>
			<path fill="#F99450" d="M178.809,157.4c-0.64,0.97-1.31,1.909-2,2.85v-33.97h15.37c-0.14,0.67-0.29,1.34-0.46,2
				c-1.72,7.069-4.271,13.81-7.55,20.12c-0.03,0.05-0.05,0.109-0.09,0.159C182.499,151.61,180.738,154.57,178.809,157.4z"/>
			<path fill="#FF7D25" d="M176.809,124.28c-1.1,0-2,0.899-2,2v36.6c0.69-0.86,1.36-1.74,2-2.63c0.69-0.94,1.36-1.88,2-2.85v-29.12
				h12.91c0.17-0.66,0.32-1.33,0.46-2c0.16-0.66,0.3-1.33,0.42-2H176.809z"/>
		</g>
		<g>
			<g>
				<path fill="#FFFFFF" d="M184.169,148.4c-0.03,0.05-0.05,0.109-0.09,0.159V148.4H184.169z"/>
			</g>
			<g>
				<line fill="none" x1="184.278" y1="165.27" x2="184.079" y2="165.27"/>
			</g>
		</g>
	</g>
	<g>
		<g>
			<path fill="#F99450" d="M164.738,126.28v47.43c-0.659,0.61-1.329,1.2-2,1.78c-1.989,1.72-4.05,3.35-6.189,4.88l-1.245,1.05
				l-1.295,0.72c-5.6,3.771-11.65,6.931-18.04,9.37c-2.43,0.94-4.91,1.78-7.44,2.5c-3.76,1.08-7.609,1.92-11.54,2.5
				c-4.39,0.66-8.89,1-13.46,1c-4.569,0-9.069-0.34-13.46-1c-2.819-0.42-5.6-0.97-8.33-1.649c-1.779-0.431-3.529-0.921-5.26-1.471
				c-0.67-0.2-1.33-0.42-2-0.649v-66.46H164.738z"/>
			<path fill="#FF7D25" d="M164.738,124.28h-90.26c-1.109,0-2,0.899-2,2v65.76c0.66,0.24,1.33,0.479,2,0.7
				c0.67,0.229,1.33,0.449,2,0.649V128.28h86.26v47.21c0.671-0.58,1.341-1.17,2-1.78c0.681-0.62,1.341-1.24,2-1.89v-45.54
				C166.738,125.18,165.839,124.28,164.738,124.28z"/>
		</g>
		<g>
			<g>
				<rect x="81.741" y="148.396" fill="#FFFFFF" width="74.807" height="5"/>
			</g>
			<g>
				<rect x="81.742" y="162.769" fill="#FFFFFF" width="74.806" height="5"/>
			</g>
			<g>
				<polygon fill="#FFFFFF" points="156.549,177.14 156.549,180.419 155.304,181.357 153.99,182.14 81.738,182.14 81.738,177.14 
									"/>
			</g>
			<g>
				<path fill="#FFFFFF" d="M135.969,191.51c-2.43,0.94-4.91,1.78-7.44,2.5c-3.76,1.08-7.609,1.92-11.54,2.5h-26.92
					c-2.819-0.42-5.6-0.97-8.33-1.649v-3.351H135.969z"/>
			</g>
		</g>
	</g>
</g>
<g>
	<defs>
		<circle id="SVGID_111_" cx="356.283" cy="105.12" r="95.283"/>
	</defs>
	<use xlink:href="#SVGID_111_"  overflow="visible" fill="#FFFFFF"/>
	<clipPath id="SVGID_2_">
		<use xlink:href="#SVGID_111_"  overflow="visible"/>
	</clipPath>
	<g clip-path="url(#SVGID_2_)">
		<polyline fill="none" stroke="#FF7D25" stroke-width="8.691" stroke-miterlimit="10" points="494.948,130.995 459.609,85.91 
			421.973,130.995 386.931,85.91 349.134,130.995 313.796,85.91 276.156,130.995 240.817,85.91 202.833,130.995 		"/>
	</g>
	<use xlink:href="#SVGID_111_"  overflow="visible" fill="none" stroke="#FF7D25" stroke-width="10" stroke-miterlimit="10"/>
</g>
</svg>
