<?xml version="1.0" encoding="utf-8"?>
<!-- Generator: Adobe Illustrator 16.0.4, SVG Export Plug-In . SVG Version: 6.00 Build 0)  -->
<!DOCTYPE svg PUBLIC "-//W3C//DTD SVG 1.1//EN" "http://www.w3.org/Graphics/SVG/1.1/DTD/svg11.dtd">
<svg version="1.1" id="Layer_1" xmlns="http://www.w3.org/2000/svg" xmlns:xlink="http://www.w3.org/1999/xlink" x="0px" y="0px"
	 width="210px" height="210px" viewBox="0 0 210 210" enable-background="new 0 0 210 210" xml:space="preserve">
<circle fill="#FFFFFF" cx="104.25" cy="105.277" r="94.5"/>
<path fill="none" stroke="#FF7D25" stroke-width="8" stroke-linecap="round" stroke-linejoin="round" stroke-miterlimit="10" d="
	M14.319,72.622c2.14-5.96,4.86-11.641,8.09-16.98h132.5v129.74c-3.96,2.52-8.13,4.75-12.47,6.66c-11.75,5.18-24.75,8.06-38.42,8.06
	c-0.68,0-1.35-0.01-2.02-0.02c-3.49-0.07-6.94-0.33-10.33-0.78c-37.71-4.87-68.51-31.8-79.03-67.44
	c-2.54-8.569-3.9-17.649-3.9-27.039c0-7.551,0.88-14.891,2.54-21.931"/>
<path fill="#F99450" d="M142.439,131.861v60.181c-11.75,5.18-24.75,8.06-38.42,8.06c-0.68,0-1.35-0.01-2.02-0.02v-68.221H142.439z"
	/>
<path fill="#F99450" d="M91.669,131.861v67.44c-37.71-4.87-68.51-31.8-79.03-67.44H91.669z"/>
<polygon fill="#F99450" points="14.319,72.622 142.709,72.622 142.709,122.462 11.279,122.462 11.279,82.892 "/>
<path fill="none" stroke="#FF7D25" stroke-width="10" stroke-miterlimit="10" d="M199.31,104.822c0,33.909-17.71,63.68-44.4,80.56
	c-3.96,2.52-8.13,4.75-12.47,6.66c-11.75,5.18-24.75,8.06-38.42,8.06c-0.68,0-1.35-0.01-2.02-0.02c-3.49-0.07-6.94-0.33-10.33-0.78
	c-37.71-4.87-68.51-31.8-79.03-67.44c-2.54-8.569-3.9-17.649-3.9-27.039c0-7.551,0.88-14.891,2.54-21.931
	c0.82-3.5,1.84-6.93,3.04-10.27c2.14-5.96,4.86-11.641,8.09-16.98c16.67-27.63,46.98-46.1,81.61-46.1
	C156.649,9.542,199.31,52.202,199.31,104.822z"/>
</svg>
