<?xml version="1.0" encoding="utf-8"?>
<!-- Generator: Adobe Illustrator 16.0.4, SVG Export Plug-In . SVG Version: 6.00 Build 0)  -->
<!DOCTYPE svg PUBLIC "-//W3C//DTD SVG 1.1//EN" "http://www.w3.org/Graphics/SVG/1.1/DTD/svg11.dtd">
<svg version="1.1" id="Layer_1" xmlns="http://www.w3.org/2000/svg" xmlns:xlink="http://www.w3.org/1999/xlink" x="0px" y="0px"
	 width="210px" height="210px" viewBox="0 0 210 210" enable-background="new 0 0 210 210" xml:space="preserve">
<path fill="#FFFFFF" stroke="#FF7D25" stroke-width="10" stroke-miterlimit="10" d="M38.218,40.687
	c4.603-4.603,9.554-8.633,14.778-12.09c9.666-6.414,20.237-10.877,31.169-13.379c30.915-7.113,64.708,1.379,88.799,25.469
	c37.216,37.215,37.216,97.547,0.007,134.754c-3.535,3.535-7.275,6.739-11.193,9.596c-9.207,6.746-19.346,11.625-29.91,14.637
	c-32.202,9.207-68.293,1.132-93.656-24.232C1.003,138.233,1.003,77.901,38.218,40.687z"/>
<path fill="#F99450" stroke="#FF7D25" stroke-width="7" stroke-linecap="round" stroke-miterlimit="10" d="M27.959,160.544
	c-6.413-9.666-10.875-20.236-13.378-31.169l63.258-63.257L65.111,53.39l55.069-7.17l-7.34,54.899l-12.728-12.728L27.959,160.544z"/>
<path fill="#F99450" stroke="#FF7D25" stroke-width="7" stroke-linecap="round" stroke-miterlimit="10" d="M98.951,107.564
	l12.729,12.729l70.145-70.146c6.746,9.207,11.625,19.347,14.638,29.911l-62.509,62.509l12.728,12.728l-55.068,7.155L98.951,107.564z
	"/>
</svg>
