<svg version="1.1" id="Layer_1" xmlns="http://www.w3.org/2000/svg" xmlns:xlink="http://www.w3.org/1999/xlink" x="0px" y="0px"
	 width="148.003px" height="148px" viewBox="0 0 148.003 148" enable-background="new 0 0 148.003 148" xml:space="preserve">

	<path id="f1"  d="M35.882,67.748l-0.057,69.061c-0.005,5.422,4.391,9.822,9.815,9.826h0.006
		c5.422,0,9.816-4.393,9.824-9.811l0.055-69.071c0,0-1.399-17.924,13.943-33.268c14.812-14.812,32.792-13.5,32.792-13.5
		c8.082,0,9.916-6.75,9.916-9.667v-0.106c-0.416-7.333-5.709-9.811-9.834-9.811c0,0-25.73-1.773-46.854,19.352
		C34.364,41.878,35.882,67.748,35.882,67.748z">

		<animate id="animation-to-x1" begin="indefinite" attributeName="d" dur="150ms" fill="" to="M61.679,72.466l-48.67,48.591c-3.836,3.832-3.841,10.051-0.007,13.891l0.004,0.004
		c3.834,3.833,10.047,3.835,13.883,0.01l48.675-48.6l27.387-27.464l32.039-31.958c3.836-3.831,3.842-10.051,0.008-13.891
		l-0.004-0.004c-3.834-3.834-10.047-3.835-13.883-0.009L89.066,45L61.679,72.466z"/>
	</path>

	<path id="f2"  d="M87.191,66.648l0.396,0.313c-4.236-4.244-11.115-4.25-15.364-0.008l-0.006,0.004
		c-4.24,4.242-4.242,11.115-0.009,15.357l-0.395-0.305l0.289,0.203l0.123,0.213c4.24,4.244,11.119,4.25,15.367,0.008l0.004-0.004
		c4.24-4.24,4.242-11.113,0.012-15.357l-0.133-0.219L87.191,66.648z">

		<animate id="animation-to-x2" begin="indefinite" attributeName="d" dur="150ms" fill="" to="M75.532,61.679l-48.591-48.67c-3.831-3.836-10.051-3.841-13.89-0.007l-0.004,0.004
		c-3.833,3.834-3.835,10.047-0.009,13.883l48.598,48.675l27.465,27.387l31.957,32.039c3.832,3.836,10.051,3.842,13.892,0.008
		l0.004-0.004c3.834-3.834,3.835-10.047,0.009-13.883l-31.965-32.045L75.532,61.679z"/>
	</path>
</svg>