<?xml version="1.0" encoding="utf-8"?>
<!-- Generator: Adobe Illustrator 16.0.0, SVG Export Plug-In . SVG Version: 6.00 Build 0)  -->
<!DOCTYPE svg PUBLIC "-//W3C//DTD SVG 1.1//EN" "http://www.w3.org/Graphics/SVG/1.1/DTD/svg11.dtd">
<svg version="1.1" id="Layer_1" xmlns="http://www.w3.org/2000/svg" xmlns:xlink="http://www.w3.org/1999/xlink" x="0px" y="0px"
	 width="76.583px" height="145.3px" viewBox="0.547 0.455 76.583 145.3" enable-background="new 0.547 0.455 76.583 145.3"
	 xml:space="preserve">
<path  d="M55.601,73.751c0-6.012-4.868-10.878-10.873-10.878c-6.01,0-10.879,4.867-10.879,10.878
	c0,6.004,4.869,10.877,10.879,10.877C50.732,84.63,55.601,79.757,55.601,73.751"/>
<path  d="M10.369,145.755h-0.006c-5.426-0.004-9.82-4.405-9.816-9.828l0.055-68.773
	c0-36.773,29.926-66.699,66.707-66.699c5.424,0,9.821,4.399,9.821,9.822c0,5.425-4.397,9.822-9.821,9.822
	c-25.951,0-47.062,21.113-47.062,47.062l-0.055,68.783C20.185,141.363,15.791,145.755,10.369,145.755"/>
</svg>
