<?xml version="1.0" encoding="utf-8"?>
<!-- Generator: Adobe Illustrator 16.0.0, SVG Export Plug-In . SVG Version: 6.00 Build 0)  -->
<!DOCTYPE svg PUBLIC "-//W3C//DTD SVG 1.1//EN" "http://www.w3.org/Graphics/SVG/1.1/DTD/svg11.dtd">
<svg version="1.1" id="Layer_1" xmlns="http://www.w3.org/2000/svg" xmlns:xlink="http://www.w3.org/1999/xlink" x="0px" y="0px"
	 width="404.575px" height="146.581px" viewBox="0.546 0.419 404.575 146.581" enable-background="new 0.546 0.419 404.575 146.581"
	 xml:space="preserve">

	 <defs>
	    <linearGradient id="linearGradient" x2="0%" y2="100%">
	       <stop id="stop1" class="stop1" offset="100%" stop-color="#ff7d25"/>
	       <stop id="stop2" class="stop2" offset="100%" stop-color="#FF7D25"/>
	    </linearGradient>
	</defs>
<path fill="url(#floatgradient-linearGradient)" d="M404.782,74.176c0-6.013-4.867-10.879-10.873-10.879c-6.008,0-10.877,4.867-10.877,10.879
	c0,6.006,4.869,10.879,10.877,10.879C399.915,85.055,404.782,80.182,404.782,74.176 M370.838,104.062
	c0,15.805,9.314,25.688,25.688,25.688l0.266-0.021c4.605,0,8.33,3.729,8.33,8.332c0,4.602-3.729,8.33-8.33,8.33l-0.756,0.096
	c-26.02,0-42.418-14.898-42.418-40.654l-0.029-0.967l-0.004-95.861c0-4.745,3.854-8.585,8.596-8.585c4.746,0,8.598,3.84,8.598,8.585
	l-0.014,94.066L370.838,104.062z M328.899,96.667c-3.711-19.239-20.191-33.73-39.961-33.73c-22.52,0-40.75,18.78-40.75,41.95
	s18.23,41.95,40.75,41.95c8.471,0,16.34-2.659,22.859-7.221c0.881,4.051,4.49,7.09,8.801,7.09c4.971,0,9-4.028,9-9v-35.59
	C329.489,100.267,329.249,98.447,328.899,96.667z M288.188,127.967c-11.879,0-21.5-10.521-21.5-23.5s9.621-23.5,21.5-23.5
	c11.871,0,21.5,10.521,21.5,23.5S300.059,127.967,288.188,127.967z M187.209,62.617c-22.271,0-40.301,18.811-40.301,42.009
	c0,23.201,18.031,42.011,40.301,42.011c22.25,0,40.312-18.81,40.312-42.011C227.522,81.428,209.459,62.617,187.209,62.617z
	 M187.209,128.037c-12.021,0-21.755-10.479-21.755-23.41c0-12.93,9.734-23.409,21.755-23.409c12.012,0,21.754,10.479,21.754,23.409
	C208.963,117.557,199.221,128.037,187.209,128.037z M110.015,147c-4.971,0-9-4.028-9-9V9.499c0-4.971,4.029-9,9-9
	c4.971,0,9,4.029,9,9V138C119.015,142.971,114.985,147,110.015,147z M55.601,73.751c0-6.012-4.868-10.878-10.873-10.878
	c-6.01,0-10.879,4.867-10.879,10.878c0,6.004,4.869,10.877,10.879,10.877C50.732,84.63,55.601,79.757,55.601,73.751 M10.369,145.755
	h-0.006c-5.426-0.004-9.82-4.405-9.816-9.827l0.055-68.774c0-36.773,29.926-66.699,66.707-66.699c5.424,0,9.821,4.399,9.821,9.822
	c0,5.425-4.397,9.822-9.821,9.822c-25.951,0-47.062,21.113-47.062,47.062l-0.055,68.783
	C20.185,141.363,15.791,145.755,10.369,145.755"/>
</svg>