<?xml version="1.0" encoding="utf-8"?>
<!-- Generator: Adobe Illustrator 16.0.4, SVG Export Plug-In . SVG Version: 6.00 Build 0)  -->
<!DOCTYPE svg PUBLIC "-//W3C//DTD SVG 1.1//EN" "http://www.w3.org/Graphics/SVG/1.1/DTD/svg11.dtd">
<svg version="1.1" id="Layer_1" xmlns="http://www.w3.org/2000/svg" xmlns:xlink="http://www.w3.org/1999/xlink" x="0px" y="0px"
	 width="99.609px" height="78.688px" viewBox="0 0 99.609 78.688" enable-background="new 0 0 99.609 78.688" xml:space="preserve">
<g>
	<g>
		<path fill="#414042" d="M85.178,52.243h-2.261c-5.21,13.332-18.193,22.799-33.348,22.799c-15.153,0-28.136-9.467-33.347-22.799
			h-1.79H0.001l13.68,1.809c5.83,14.088,19.72,24.025,35.89,24.025c16.14,0,30.007-9.9,35.857-23.943l14.183-1.891H85.178z"/>
		<path fill="#414042" d="M14.364,32.622h0.038c3.119-16.575,17.7-29.154,35.168-29.154s32.051,12.58,35.168,29.154h0.165
			l-0.129,0.187h14.364l-1.435-0.187L87.57,31.295c-3.682-17.603-19.319-30.863-38-30.863c-18.61,0-34.201,13.165-37.958,30.67
			L0,32.622H14.364z"/>
		<path fill="#1096BF" d="M45.289,22.169c-0.014-0.034-0.021-0.066-0.021-0.101c0-0.058,0.019-0.112,0.051-0.16l-1.999,0.01
			c0.057,0.055,0.089,0.127,0.089,0.205c0,0.021-0.002,0.043-0.009,0.063h1.864L45.289,22.169z"/>
		<path fill="#1096BF" d="M44.026,22.742c-0.032,0.096-0.094,0.183-0.174,0.254l1.698,3.484c0.044-0.026,0.091-0.048,0.139-0.063
			v-3.196l-0.309-0.479H44.026z"/>
		<rect x="43.545" y="27.517" fill="#1096BF" width="2.145" height="2.574"/>
		<rect x="51.395" y="20.91" fill="#1096BF" width="0.176" height="0.113"/>
		<path fill="#1096BF" d="M51.018,23.245v3.156c0.07,0.018,0.137,0.042,0.198,0.078l1.668-3.423
			c-0.153-0.11-0.257-0.228-0.321-0.313h-1.222L51.018,23.245z"/>
		<path fill="#1096BF" d="M42.749,22.156c-0.002-0.011-0.002-0.022-0.002-0.033c0-0.021,0.002-0.041,0.007-0.062l-0.298,0.125h0.253
			L42.749,22.156z"/>
		<path fill="#1096BF" d="M41.028,26.696l1.848-3.712c-0.072-0.068-0.129-0.15-0.161-0.241h-1.623l-0.2,3.731l0.138,0.123
			L41.028,26.696L41.028,26.696z"/>
		<rect x="51.486" y="21.48" fill="#1096BF" width="0.084" height="0.715"/>
		<polygon fill="#1096BF" points="40.569,25.996 40.744,22.742 40.569,22.742 		"/>
		<rect x="40.951" y="27.517" fill="#1096BF" width="2.245" height="2.574"/>
		<path fill="#1096BF" d="M41.337,26.889h1.859v-3.734c-0.014-0.003-0.023-0.006-0.037-0.01L41.337,26.889z"/>
		<path fill="#1096BF" d="M45.183,26.889c0.035-0.065,0.075-0.126,0.118-0.182l-1.735-3.56c-0.007,0.002-0.014,0.004-0.021,0.006
			v3.734L45.183,26.889L45.183,26.889z"/>
		<rect x="50.138" y="21.48" fill="#1096BF" width="0.083" height="0.715"/>
		<polygon fill="#1096BF" points="49.964,22.188 49.964,21.48 49.044,21.48 49.044,22.188 49.13,22.188 49.13,21.695 49.505,21.695 
			49.505,22.188 49.533,22.188 49.533,21.695 49.908,21.695 49.908,22.188 		"/>
		<path fill="#1096BF" d="M50.043,22.742h-0.855c-0.063,0.089-0.142,0.171-0.229,0.242l0.688,1.414l0.67-1.377
			C50.188,22.922,50.1,22.818,50.043,22.742z"/>
		<path fill="#1096BF" d="M47.221,21.899l-1.34,0.006c0.032,0.05,0.051,0.104,0.051,0.164c0,0.042-0.008,0.081-0.027,0.118h1.316
			V21.899z"/>
		<rect x="47.394" y="21.48" fill="#1096BF" width="0.083" height="0.715"/>
		<path fill="#1096BF" d="M50.167,26.889c0.024-0.118,0.088-0.228,0.18-0.313l-0.699-1.437l-0.732,1.504
			c0.058,0.074,0.098,0.157,0.118,0.246H50.167z"/>
		<rect x="48.714" y="20.91" fill="#1096BF" width="0.205" height="0.113"/>
		<rect x="47.394" y="20.91" fill="#1096BF" width="0.194" height="0.113"/>
		<rect x="50.045" y="20.91" fill="#1096BF" width="0.223" height="0.113"/>
		<rect x="47.394" y="21.202" fill="#1096BF" width="4.177" height="0.114"/>
		<rect x="48.788" y="21.48" fill="#1096BF" width="0.082" height="0.715"/>
		<path fill="#1096BF" d="M48.526,23.24v3.162c0.043,0.01,0.085,0.024,0.125,0.041l0.815-1.674l-0.781-1.602
			C48.635,23.194,48.581,23.218,48.526,23.24z"/>
		<path fill="#1096BF" d="M37.177,27.517h-0.634l-0.427,0.512v2.062h0.37l1.021-2.093C37.329,27.883,37.21,27.711,37.177,27.517z"/>
		<polygon fill="#1096BF" points="39.286,17.695 38.273,17.695 39.286,18.863 		"/>
		<polygon fill="#1096BF" points="38.052,17.828 37.62,20.148 40.061,20.148 		"/>
		<polygon fill="#1096BF" points="37.542,20.564 37.003,23.471 40.001,23.471 		"/>
		<path fill="#1096BF" d="M46.567,26.889h1.107c0.018-0.079,0.051-0.153,0.101-0.222l-1.722-3.532
			c-0.006,0.003-0.013,0.006-0.02,0.009v3.307L46.567,26.889z"/>
		<polygon fill="#1096BF" points="39.286,16.551 38.459,15.625 38.121,17.446 39.286,17.446 		"/>
		<path fill="#1096BF" d="M49.57,72.038c13.491,0,25.077-8.15,30.107-19.795h-2.38c-4.972,10.233-15.471,17.305-27.594,17.305
			c-12.121,0-22.62-7.07-27.593-17.305h-2.647C24.494,63.888,36.079,72.038,49.57,72.038z"/>
		<path fill="#1096BF" d="M35.217,27.517H34.26v2.574h1.587V28.1C35.683,28.047,35.412,27.905,35.217,27.517z"/>
		<path fill="#1096BF" d="M36.849,30.091h1.087v-1.958c-0.043-0.003-0.084-0.007-0.125-0.016L36.849,30.091z"/>
		<path fill="#1096BF" d="M49.57,6.472c-15.833,0-29.045,11.225-32.11,26.15h2.234C22.595,18.715,34.949,8.235,49.704,8.235
			c14.757,0,27.109,10.48,30.012,24.388h1.966C78.615,17.696,65.403,6.472,49.57,6.472z"/>
		<rect x="31.769" y="27.517" fill="#1096BF" width="2.146" height="2.574"/>
		<rect x="29.277" y="27.517" fill="#1096BF" width="2.145" height="2.574"/>
		<path fill="#1096BF" d="M40.707,13.288h-0.139v0.351c0.049,0.015,0.095,0.035,0.139,0.06V13.288z"/>
		<polygon fill="#1096BF" points="39.286,16.22 39.286,15.473 40.113,15.473 40.113,17.149 40.132,17.17 40.132,15.389 
			38.654,15.513 		"/>
		<path fill="#1096BF" d="M40.041,14.15h0.091v-0.071l-0.03-0.031C40.074,14.078,40.053,14.112,40.041,14.15z"/>
		<polygon fill="#1096BF" points="38.52,15.301 40.132,15.301 40.132,15.221 38.862,13.462 		"/>
		<path fill="#1096BF" d="M39.665,14.206c0.011-0.257,0.197-0.485,0.467-0.567v-0.351h-1.13L39.665,14.206z"/>
		<polygon fill="#1096BF" points="36.924,23.897 36.368,26.889 40.014,26.889 		"/>
		<path fill="#1096BF" d="M40.665,22.227c0-0.051,0.015-0.101,0.042-0.146v-7.315c-0.044,0.024-0.09,0.042-0.139,0.059v7.525h0.124
			C40.675,22.31,40.665,22.269,40.665,22.227z"/>
		<path fill="#1096BF" d="M38.667,27.775l1.127,2.316h0.315v-2.574h-1.339C38.755,27.609,38.719,27.695,38.667,27.775z"/>
		<path fill="#1096BF" d="M38.22,28.097v1.994h1.215l-1.015-2.082C38.359,28.046,38.292,28.076,38.22,28.097z"/>
		<polygon fill="#1096BF" points="40.132,26.578 40.132,23.721 37.181,23.721 		"/>
		<polygon fill="#1096BF" points="40.113,18.939 39.352,18.939 40.132,19.839 40.132,17.695 40.113,17.695 		"/>
		<polygon fill="#1096BF" points="40.132,23.167 40.132,20.397 37.788,20.397 		"/>
		<path fill="#1096BF" d="M40.68,12.81h-0.076l0.036,0.038c0.034-0.018,0.056-0.051,0.056-0.09c0-0.04-0.024-0.077-0.061-0.094
			l-0.048,0.051h0.093V12.81z"/>
		<path fill="#1096BF" d="M60.454,27.517l-1.343,0.003v2.571h0.321l1.126-2.31C60.505,27.701,60.47,27.61,60.454,27.517z"/>
		<polygon fill="#1096BF" points="59.089,20.938 59.089,23.708 61.434,20.938 		"/>
		<polygon fill="#1096BF" points="59.936,19.403 60.947,18.235 59.936,18.235 		"/>
		<polygon fill="#1096BF" points="62.298,24.438 59.766,26.889 62.753,26.889 		"/>
		<path fill="#1096BF" d="M59.795,30.091h1.212v-1.988c-0.071-0.021-0.139-0.05-0.202-0.087L59.795,30.091z"/>
		<path fill="#1096BF" d="M59.194,14.771c0-0.065-0.027-0.131-0.075-0.184l-0.029,0.032v0.281l0.041,0.042
			C59.171,14.894,59.194,14.833,59.194,14.771z"/>
		<polygon fill="#1096BF" points="59.107,19.479 59.107,18.235 59.089,18.235 59.089,20.38 59.868,19.479 		"/>
		<path fill="#1096BF" d="M39.128,60.196c0.528,0,0.761-0.256,0.761-0.674v-2.018c0-0.418-0.231-0.674-0.761-0.674
			c-0.53,0-0.765,0.256-0.765,0.674v2.018C38.364,59.94,38.598,60.196,39.128,60.196z"/>
		<path fill="#1096BF" d="M59.557,14.746l0.661-0.917h-1.129v0.35C59.357,14.262,59.545,14.488,59.557,14.746z"/>
		<polygon fill="#1096BF" points="59.107,16.013 59.936,16.013 59.936,16.761 60.705,15.898 60.712,15.904 60.358,14.003 
			59.089,15.761 59.089,17.711 59.107,17.69 		"/>
		<path fill="#1096BF" d="M61.29,28.137v1.954h1.084l-0.958-1.966C61.376,28.132,61.334,28.136,61.29,28.137z"/>
		<polygon fill="#1096BF" points="62.04,24.261 59.089,24.261 59.089,26.889 59.325,26.889 		"/>
		<path fill="#1096BF" d="M35.648,57.938v-0.467c0-0.385-0.12-0.561-0.564-0.561H34.28v1.61h0.804
			C35.55,58.522,35.648,58.321,35.648,57.938z"/>
		<polygon fill="#1096BF" points="55.602,56.903 55.058,59.14 56.137,59.14 		"/>
		<path fill="#1096BF" d="M49.704,68.843c11.719,0,21.882-6.768,26.8-16.6h-53.6C27.823,62.075,37.985,68.843,49.704,68.843z
			 M63.186,55.845h1.82c1.157,0,1.587,0.666,1.587,1.389v2.562c0,0.713-0.43,1.387-1.587,1.387h-1.82V55.845z M58.347,55.845h1.297
			l1.545,3.678v-3.678h1.01v5.338h-1.305l-1.539-3.51v3.51h-1.008V55.845z M54.896,55.845h1.409l1.439,5.338h-1.102l-0.254-1.041
			h-1.572l-0.255,1.041h-1.101L54.896,55.845z M50.26,55.845h1.06v4.273h1.861v1.063H50.26V55.845z M46.063,55.845h3.583v1.066
			h-1.264v4.271h-1.058v-4.271h-1.263L46.063,55.845L46.063,55.845z M41.829,55.845h1.954c1.142,0,1.565,0.516,1.565,1.516v0.656
			c0,0.666-0.212,1.115-0.685,1.34l1.136,1.826h-1.256l-1.037-1.66h-0.62v1.66h-1.059L41.829,55.845L41.829,55.845z M37.307,57.401
			c0-0.809,0.493-1.635,1.821-1.635c1.325,0,1.817,0.826,1.817,1.635v2.229c0,0.809-0.492,1.633-1.817,1.633
			c-1.328,0-1.821-0.824-1.821-1.633V57.401z M33.223,55.845h1.918c1.144,0,1.565,0.516,1.565,1.516v0.697
			c0,1.002-0.479,1.508-1.623,1.508H34.28v1.617h-1.058L33.223,55.845L33.223,55.845z"/>
		<path fill="#1096BF" d="M62.051,27.517c-0.033,0.198-0.151,0.372-0.332,0.488l1.016,2.086h0.376v-2.055l-0.434-0.52H62.051z"/>
		<path fill="#1096BF" d="M44.291,57.897v-0.426c0-0.397-0.134-0.561-0.564-0.561h-0.839v1.569h0.839
			C44.178,58.481,44.291,58.298,44.291,57.897z"/>
		<rect x="46.034" y="27.517" fill="#1096BF" width="2.146" height="2.574"/>
		<rect x="65.329" y="27.517" fill="#1096BF" width="2.145" height="2.574"/>
		<path fill="#1096BF" d="M65.535,59.47v-1.91c0-0.416-0.127-0.647-0.657-0.647h-0.635v3.207h0.635
			C65.408,60.118,65.535,59.884,65.535,59.47z"/>
		<path fill="#1096BF" d="M63.381,28.104v1.987h1.602v-2.574h-0.971C63.933,27.782,63.515,28.044,63.381,28.104z"/>
		<rect x="67.82" y="27.517" fill="#1096BF" width="2.146" height="2.574"/>
		<path fill="#1096BF" d="M49.704,8.941c-14.363,0-26.394,10.167-29.284,23.682h58.57C76.099,19.108,64.069,8.941,49.704,8.941z
			 M69.965,30.642H67.82h-0.347h-2.145h-0.348h-1.602h-0.27h-0.105h-0.361H61.29h-0.283h-1.481h-1.254h-2.27h-0.349H53.51h-0.348
			h-2.146h-0.346h-2.146h-0.346h-2.146h-0.346h-2.145h-0.349h-2.245h-1.248H38.22h-0.284h-1.354H36.22h-0.103h-0.271H34.26h-0.347
			h-2.146H31.42h-2.145h-0.347H24.45l4.479-0.551v-2.574H28.41v-0.628h7.526l2.558-13.629l-0.001-0.01V12.9h0.384
			c-0.03-0.047-0.046-0.1-0.046-0.154c0-0.168,0.147-0.305,0.329-0.305c0.184,0,0.332,0.137,0.332,0.305
			c0,0.055-0.018,0.107-0.048,0.154h0.833c-0.024-0.044-0.04-0.092-0.04-0.143c0-0.167,0.148-0.303,0.331-0.303
			c0.185,0,0.332,0.137,0.332,0.303c0,0.051-0.013,0.098-0.039,0.143h0.267v0.389H40.83v0.498c0.13,0.116,0.205,0.277,0.205,0.444
			c0,0.169-0.072,0.326-0.205,0.444v7.288c0.05-0.026,0.105-0.04,0.164-0.04c0.169,0,0.307,0.116,0.329,0.264h0.818l0.755-0.318
			c0.024-0.016,0.056-0.028,0.089-0.037l0.084-0.032l2.406-0.012c0.075-0.028,0.164-0.028,0.241-0.002l1.501-0.007v-1.032h0.43
			l0.487-0.368h2.764l0.437,0.368h0.405v0.945l4.462,0.104l0.072,0.031c0.03,0.007,0.066,0.021,0.096,0.041l0.749,0.319h0.814
			c0.018-0.151,0.158-0.271,0.327-0.271c0.046,0,0.09,0.009,0.131,0.023v-6.72c-0.135-0.118-0.211-0.28-0.211-0.449
			c0-0.168,0.076-0.331,0.211-0.448V13.83h-0.304v-0.389h0.266c-0.024-0.045-0.04-0.093-0.04-0.144c0-0.174,0.15-0.312,0.332-0.312
			c0.184,0,0.331,0.138,0.331,0.306c0,0.054-0.014,0.104-0.038,0.148h0.831c-0.028-0.047-0.046-0.102-0.046-0.155
			c0-0.168,0.148-0.304,0.331-0.304c0.182,0,0.331,0.136,0.331,0.304c0,0.054-0.018,0.107-0.048,0.155h0.385v0.367l2.453,13.081
			h7.915v0.628h-0.782v2.574l4.743,0.551h-4.743H69.965z"/>
		<polygon fill="#1096BF" points="59.936,17.986 61.099,17.986 60.761,16.166 59.936,17.092 		"/>
		<path fill="#1096BF" d="M51.742,21.811v0.376h1.616c-0.02-0.039-0.029-0.082-0.029-0.125c0-0.082,0.034-0.157,0.093-0.211
			L51.742,21.811z"/>
		<path fill="#1096BF" d="M51.522,26.889h1.313l0.326-0.267v-3.398l-1.704,3.498C51.488,26.774,51.511,26.831,51.522,26.889z"/>
		<path fill="#1096BF" d="M53.673,26.402l1.664-3.416c-0.074-0.068-0.132-0.152-0.165-0.243H53.86l-0.35,0.544v3.093l0,0
			C53.548,26.38,53.604,26.383,53.673,26.402z"/>
		<rect x="51.018" y="27.517" fill="#1096BF" width="2.146" height="2.574"/>
		<rect x="53.51" y="27.517" fill="#1096BF" width="2.145" height="2.574"/>
		<polygon fill="#1096BF" points="48.614,21.48 47.649,21.48 47.649,22.188 47.702,22.188 47.702,21.71 48.078,21.71 48.078,22.188 
			48.105,22.188 48.105,21.71 48.48,21.71 48.48,22.188 48.614,22.188 		"/>
		<path fill="#1096BF" d="M46.579,22.742c-0.072,0.084-0.152,0.16-0.244,0.228l1.696,3.484c0.047-0.024,0.097-0.042,0.148-0.054
			v-3.208l-0.29-0.45H46.579z"/>
		<path fill="#1096BF" d="M53.96,26.554c0.101,0.083,0.19,0.195,0.266,0.335h1.429v-3.734c-0.012-0.003-0.023-0.006-0.034-0.009
			L53.96,26.554z"/>
		<polygon fill="#1096BF" points="51.25,22.188 51.313,22.188 51.313,21.48 50.394,21.48 50.394,22.188 50.471,22.188 
			50.471,21.661 50.847,21.661 50.847,22.188 50.875,22.188 50.875,21.661 51.25,21.661 		"/>
		<polygon fill="#1096BF" points="61.601,20.688 61.17,18.368 59.158,20.688 		"/>
		<path fill="#1096BF" d="M49.827,24.769l0.801,1.645c0.015-0.003,0.029-0.009,0.044-0.011v-3.176
			c-0.026-0.01-0.051-0.021-0.077-0.034L49.827,24.769z"/>
		<rect x="48.526" y="27.517" fill="#1096BF" width="2.146" height="2.574"/>
		<path fill="#1096BF" d="M58.519,22.025c0.05,0.056,0.077,0.124,0.077,0.194c0,0.045-0.012,0.089-0.031,0.129h0.087v-6.985
			c-0.045-0.015-0.09-0.033-0.133-0.056V22.025L58.519,22.025z"/>
		<path fill="#1096BF" d="M53.908,21.861c0.053,0.055,0.083,0.125,0.083,0.201c0,0.033-0.008,0.067-0.02,0.1l0.032,0.025h1.854
			c-0.004-0.022-0.007-0.048-0.007-0.07c0-0.08,0.032-0.154,0.089-0.209L53.908,21.861z"/>
		<polygon fill="#1096BF" points="62.22,24.012 61.678,21.104 59.22,24.012 		"/>
		<polygon fill="#1096BF" points="58.651,24.267 58.651,22.742 58.57,22.742 		"/>
		<path fill="#1096BF" d="M58.519,14.234c0.043-0.022,0.088-0.041,0.133-0.055v-0.35h-0.133V14.234z"/>
		<rect x="56.002" y="27.517" fill="#1096BF" width="2.27" height="2.574"/>
		<path fill="#1096BF" d="M56.134,23.109c-0.042,0.02-0.088,0.035-0.132,0.045v3.734l1.97-0.004L56.134,23.109z"/>
		<path fill="#1096BF" d="M56.483,22.742c-0.02,0.059-0.051,0.111-0.088,0.162l1.814,3.725v-0.026l0.209-0.189l-0.197-3.67
			L56.483,22.742L56.483,22.742z"/>
		<path fill="#1096BF" d="M56.513,22.148l0.05,0.04h0.248l-0.304-0.13c0.006,0.02,0.007,0.038,0.007,0.06
			C56.514,22.127,56.513,22.138,56.513,22.148z"/>
		<path fill="#1096BF" d="M58.547,14.771c0,0.061,0.021,0.119,0.061,0.167l0.044-0.047v-0.262l-0.033-0.037
			C58.571,14.644,58.547,14.706,58.547,14.771z"/>
		<path fill="#414042" d="M56.568,39.554c0-1.205-0.496-2.166-1.471-2.857c-0.963-0.681-2.296-1.026-3.959-1.026h-9.606v13.467
			h2.778v-5.619h5.61l4.018,5.619h3.116l-4.091-5.742c0.993-0.219,1.82-0.641,2.463-1.25C56.185,41.429,56.568,40.556,56.568,39.554
			z M53.044,40.934c-0.443,0.306-1.129,0.459-2.037,0.459h-6.696v-3.618h6.799c0.837,0,1.484,0.163,1.929,0.482
			c0.436,0.317,0.648,0.756,0.648,1.344C53.687,40.201,53.477,40.637,53.044,40.934z"/>
		<path fill="#414042" d="M62.646,38.905c1.116-0.933,2.49-1.386,4.199-1.386c1.101,0,2.107,0.206,2.994,0.609
			c0.882,0.401,1.562,0.966,2.031,1.676l0.208,0.319l2.344-1.335l-0.201-0.25c-0.799-1.005-1.852-1.788-3.13-2.331
			c-1.274-0.541-2.701-0.816-4.246-0.816c-2.494,0-4.591,0.671-6.232,1.994c-1.641,1.323-2.472,3.023-2.472,5.052
			c0,2.024,0.829,3.718,2.464,5.044c1.638,1.322,3.735,1.992,6.24,1.992c1.646,0,3.137-0.301,4.44-0.895
			c1.301-0.597,2.368-1.463,3.179-2.574l0.053-0.074v-4.26h-7.161v2.104h4.384v1.478c-0.591,0.684-1.287,1.205-2.075,1.553
			c-0.816,0.361-1.766,0.545-2.818,0.545c-1.71,0-3.083-0.453-4.2-1.381c-1.106-0.92-1.667-2.107-1.667-3.53
			C60.979,41.018,61.538,39.828,62.646,38.905z"/>
		<polygon fill="#414042" points="80.632,47.034 80.632,43.02 91,43.02 91,40.915 80.632,40.915 80.632,37.774 90.975,37.774 
			90.975,35.67 77.853,35.67 77.853,49.138 91.008,49.138 91.297,49.138 91.297,47.034 91.008,47.034 		"/>
		<polygon fill="#414042" points="17.175,40.915 10.739,40.915 10.739,37.774 20.372,37.774 21.206,37.774 21.382,37.774 
			21.382,36.098 21.382,35.67 20.597,35.67 7.96,35.67 7.96,49.138 10.739,49.138 10.739,43.02 17.175,43.02 		"/>
		<path fill="#414042" d="M30.146,35.392c-2.495,0-4.592,0.671-6.232,1.994c-1.642,1.323-2.474,3.023-2.474,5.052
			c0,2.024,0.83,3.719,2.467,5.044c1.636,1.322,3.734,1.992,6.239,1.992c2.514,0,4.623-0.67,6.271-1.992
			c1.646-1.323,2.479-3.02,2.479-5.044c0-2.021-0.838-3.719-2.487-5.045C34.757,36.064,32.65,35.392,30.146,35.392z M34.348,45.968
			c-1.118,0.928-2.492,1.381-4.201,1.381c-1.71,0-3.083-0.453-4.201-1.381c-1.104-0.92-1.667-2.107-1.667-3.53
			c0-1.42,0.562-2.609,1.667-3.533c1.118-0.933,2.491-1.386,4.201-1.386c1.72,0,3.097,0.452,4.208,1.38
			c1.102,0.92,1.659,2.111,1.659,3.539C36.014,43.86,35.453,45.048,34.348,45.968z"/>
	</g>
</g>
</svg>