<?xml version="1.0" encoding="utf-8"?>
<!-- Generator: Adobe Illustrator 16.0.4, SVG Export Plug-In . SVG Version: 6.00 Build 0)  -->
<!DOCTYPE svg PUBLIC "-//W3C//DTD SVG 1.1//EN" "http://www.w3.org/Graphics/SVG/1.1/DTD/svg11.dtd">
<svg version="1.1" id="Layer_1" xmlns="http://www.w3.org/2000/svg" xmlns:xlink="http://www.w3.org/1999/xlink" x="0px" y="0px"
	 width="210px" height="210px" viewBox="0 0 210 210" enable-background="new 0 0 210 210" xml:space="preserve">
<g>
	<defs>
		<circle id="SVGID_39_" cx="104.482" cy="106.252" r="95.283"/>
	</defs>
	<use xlink:href="#SVGID_39_"  overflow="visible" fill="#FFFFFF"/>
	<clipPath id="SVGID_2_">
		<use xlink:href="#SVGID_39_"  overflow="visible"/>
	</clipPath>
	<use xlink:href="#SVGID_39_"  overflow="visible" fill="none" stroke="#FF7D25" stroke-width="10" stroke-miterlimit="10"/>
</g>
<g>
	<path fill="#F99450" d="M137.816,19.524l-32.8,47.748l35.773,24.568l0.01,0.012l32.617-47.506c0,0-5.201-6.885-15.354-14.184
		C147.911,22.866,137.816,19.524,137.816,19.524z"/>
	<polygon fill="#FFFFFF" points="100.571,74.591 94.651,110.151 94.641,110.161 104.991,117.272 135.881,98.841 	"/>
	<polygon fill="#FFFFFF" points="100.571,74.591 94.651,110.151 94.641,110.161 104.991,117.272 135.881,98.841 	"/>
	<path fill="#FF7D25" d="M104.861,5.821c-54.75,0-99.28,44.541-99.28,99.291c0,54.74,44.53,99.279,99.28,99.279
		c54.74,0,99.28-44.539,99.28-99.279C204.141,50.362,159.601,5.821,104.861,5.821z M173.081,44.462l-32.17,46.85l-0.01-0.01
		l-35.25-24.211l32.33-47.1c1.905,0.746,10.938,4.543,18.906,10.094C166.668,36.897,173.071,44.452,173.081,44.462z M135.881,98.841
		l-30.891,18.432l-10.35-7.111l0.01-0.01l5.92-35.561L135.881,98.841z M104.861,196.392c-50.34,0-91.28-40.949-91.28-91.279
		c0-50.34,40.94-91.291,91.28-91.291c8.36,0,16.46,1.131,24.15,3.25L95.621,65.692c-0.59,0.859-0.84,1.84-0.79,2.789
		c0,0-11.52,69.211-11.529,69.26c-0.12,0.771,0.41,1.49,1.189,1.611l50.13,7.68l-89.21,11.82l116.551,17.41
		C146.321,188.853,126.451,196.392,104.861,196.392z M169.721,169.263l-86.36-10.391l69.33-9.18l19.62-2.602l-19.61-2.369
		l-67.42-8.131l59.21-35.148v-0.021c0.521-0.318,0.96-0.738,1.32-1.25l33.16-48.279c10.8,14.99,17.17,33.371,17.17,53.221
		C196.141,130.103,186.051,152.772,169.721,169.263z"/>
</g>
</svg>
