<?xml version="1.0" encoding="utf-8"?>
<!-- Generator: Adobe Illustrator 16.0.4, SVG Export Plug-In . SVG Version: 6.00 Build 0)  -->
<!DOCTYPE svg PUBLIC "-//W3C//DTD SVG 1.1//EN" "http://www.w3.org/Graphics/SVG/1.1/DTD/svg11.dtd">
<svg version="1.1" id="Layer_1" xmlns="http://www.w3.org/2000/svg" xmlns:xlink="http://www.w3.org/1999/xlink" x="0px" y="0px"
	 width="210px" height="210px" viewBox="0 0 210 210" enable-background="new 0 0 210 210" xml:space="preserve">
<circle fill="#FFFFFF" cx="104.354" cy="103.953" r="95.195"/>
<circle fill="none" stroke="#FF7D25" stroke-width="7" stroke-miterlimit="10" cx="115.847" cy="92.383" r="57.788"/>
<line fill="none" stroke="#FF7D25" stroke-width="10" stroke-miterlimit="10" x1="76.587" y1="134.731" x2="38.525" y2="172.791"/>
<path fill="none" stroke="#FF7D25" stroke-width="10" stroke-miterlimit="10" d="M64.994,158.61l-20.33,20.329
	c-4.62-3.659-8.89-7.76-12.74-12.21l20.591-20.59c3.449-3.45,9.029-3.45,12.479,0C68.435,149.58,68.435,155.17,64.994,158.61z"/>
<path fill="none" stroke="#FF7D25" stroke-width="10" stroke-miterlimit="10" d="M199.225,104.34c0,52.62-42.66,95.29-95.28,95.29
	c-22.4,0-43.01-7.74-59.28-20.69c-4.62-3.659-8.89-7.76-12.74-12.21c-14.5-16.72-23.27-38.529-23.27-62.39
	c0-52.62,42.66-95.28,95.29-95.28C156.564,9.06,199.225,51.72,199.225,104.34z"/>
</svg>
