<?xml version="1.0" encoding="utf-8"?>
<!-- Generator: Adobe Illustrator 16.0.4, SVG Export Plug-In . SVG Version: 6.00 Build 0)  -->
<!DOCTYPE svg PUBLIC "-//W3C//DTD SVG 1.1//EN" "http://www.w3.org/Graphics/SVG/1.1/DTD/svg11.dtd">
<svg version="1.1" id="_x30_1-iPad-Air-Mock-up_xA0_Image_1_"
	 xmlns="http://www.w3.org/2000/svg" xmlns:xlink="http://www.w3.org/1999/xlink" x="0px" y="0px" width="1084px" height="2220px"
	 viewBox="0 0 1084 2220" enable-background="new 0 0 1084 2220" xml:space="preserve">
<path fill="#fafafa" stroke="#FF7D25" stroke-width="23" stroke-miterlimit="10" d="M1061.62,2059.902
	c0,78.68-63.779,142.459-142.457,142.459H167.578c-78.678,0-142.458-63.779-142.458-142.459V165.707
	c0-78.679,63.78-142.459,142.458-142.459h751.585c78.678,0,142.457,63.78,142.457,142.459V2059.902z"/>
<line fill="none" stroke="#FF7D25" stroke-width="15" stroke-linecap="round" stroke-miterlimit="10" x1="465.517" y1="149.818" x2="621.503" y2="149.818"/>
<circle fill="#FF7D25" cx="372.438" cy="149.531" r="19.499"/>
<path fill="none" stroke="#FF7D25" stroke-width="14" stroke-miterlimit="10" d="M624.009,2076.139
	c0-44.731-36.264-80.996-80.987-80.996c-44.732,0-80.996,36.265-80.996,80.996c0,44.734,36.264,80.996,80.996,80.996
	C587.745,2157.135,624.009,2120.873,624.009,2076.139z"/>
<rect x="64" y="264" fill="none" stroke="#FF7D25" stroke-width="9" stroke-miterlimit="10" width="956" height="1688"/>
<image id="screen" class="phone-screen" x="66" y="266" width="954" height="1682" xlink:href="images/forge-phone.jpg"></image>
</svg>
