<?xml version="1.0" encoding="utf-8"?>
<!-- Generator: Adobe Illustrator 16.0.4, SVG Export Plug-In . SVG Version: 6.00 Build 0)  -->
<!DOCTYPE svg PUBLIC "-//W3C//DTD SVG 1.1//EN" "http://www.w3.org/Graphics/SVG/1.1/DTD/svg11.dtd">
<svg version="1.1" id="_x30_1-iPad-Air-Mock-up_xA0_Image_1_"
	 xmlns="http://www.w3.org/2000/svg" xmlns:xlink="http://www.w3.org/1999/xlink" x="0px" y="0px" width="4061.188px"
	 height="2399.521px" viewBox="0 0 4061.188 2399.521" enable-background="new 0 0 4061.188 2399.521" xml:space="preserve">
<path fill="#fafafa" stroke="#FF7D25" stroke-width="23" stroke-miterlimit="10" d="M4036.967,2255.676v66.58
	c0,0-50.92,50.92-164.49,50.92c-113.58,0-1775.18,0-1775.18,0h-52.33c0,0-1742.79,0-1856.37,0c-113.57,0-164.49-50.92-164.49-50.92
	v-66.58H4036.967z"/>
<path fill="#fafafa" stroke="#FF7D25" stroke-width="23" stroke-miterlimit="10" d="M2083.791,2256.159h1637.047V117.336
	c0,0,7.832-99.867-99.867-99.867c-107.701,0-1603.758,0-1603.758,0h-139.915c0,0-1328.391,0-1436.092,0
	c-107.699,0-99.867,99.867-99.867,99.867v2138.823h1637.047H2083.791z"/>
<circle fill="#FF7D25" cx="2043.009" cy="94.15" r="22"/>
<path fill="none" stroke="#FF7D25" stroke-width="23" stroke-miterlimit="10" d="M2308.177,2255.676
	c-15.34,47.13-59.88,42.33-59.88,42.33h-433c0,0-44.76,5.51-60-42.33H2308.177z"/>
<rect x="486.18" y="164.971" fill="none" stroke="#FF7D25" stroke-width="8.9789" stroke-miterlimit="10" width="3095.381" height="1910.615"/>
<image id="screen" class="desktop-screen" x="486.18" y="164.971" width="3095.381" height="1910.615" xlink:href="images/build/forge-desktop.jpg"></image>
</svg>
