<?xml version="1.0" encoding="utf-8"?>
<!-- Generator: Adobe Illustrator 16.0.4, SVG Export Plug-In . SVG Version: 6.00 Build 0)  -->
<!DOCTYPE svg PUBLIC "-//W3C//DTD SVG 1.1//EN" "http://www.w3.org/Graphics/SVG/1.1/DTD/svg11.dtd">
<svg version="1.1" id="Layer_1" xmlns="http://www.w3.org/2000/svg" xmlns:xlink="http://www.w3.org/1999/xlink" x="0px" y="0px"
	 width="210px" height="210px" viewBox="0 0 210 210" enable-background="new 0 0 210 210" xml:space="preserve">
<g>
	<defs>
		<circle id="SVGID_111_" cx="104.296" cy="105.12" r="95.283"/>
	</defs>
	<use xlink:href="#SVGID_111_"  overflow="visible" fill="#FFFFFF"/>
	<clipPath id="SVGID_2_">
		<use xlink:href="#SVGID_111_"  overflow="visible"/>
	</clipPath>
	<g clip-path="url(#SVGID_2_)">
		<path fill="none" stroke="#F99450" stroke-width="8" stroke-miterlimit="10" d="M-17.823,74.281c0,0,17.432,104.869,29.883,73.352
			S34.245,39.898,44.433,65.684l2.037,8.598c0,0,17.432,104.869,29.883,73.352s22.186-107.734,32.373-81.949l2.815,8.598
			c0,0,17.431,104.869,29.882,73.352s22.186-107.734,32.373-81.949l2.037,8.598c0,0,17.432,104.869,29.883,73.352
			s22.186-107.734,32.373-81.949"/>
		<polyline fill="none" stroke="#FF7D25" stroke-width="8.691" stroke-miterlimit="10" points="242.961,130.995 207.622,85.91 
			169.985,130.995 134.943,85.91 97.146,130.995 61.809,85.91 24.169,130.995 -11.17,85.91 -49.154,130.995 		"/>
	</g>
	<use xlink:href="#SVGID_111_"  overflow="visible" fill="none" stroke="#FF7D25" stroke-width="10" stroke-miterlimit="10"/>
</g>
</svg>
