<?xml version="1.0" encoding="utf-8"?>
<!-- Generator: Adobe Illustrator 16.0.4, SVG Export Plug-In . SVG Version: 6.00 Build 0)  -->
<!DOCTYPE svg PUBLIC "-//W3C//DTD SVG 1.1//EN" "http://www.w3.org/Graphics/SVG/1.1/DTD/svg11.dtd">
<svg version="1.1" id="Layer_1" xmlns="http://www.w3.org/2000/svg" xmlns:xlink="http://www.w3.org/1999/xlink" x="0px" y="0px"
	 width="210px" height="210px" viewBox="0 0 210 210" enable-background="new 0 0 210 210" xml:space="preserve">
<circle fill="#FFFFFF" stroke="#FF7D25" stroke-width="10" stroke-linecap="round" stroke-miterlimit="10" cx="104.819" cy="105.391" r="95.283"/>
<path fill="#F99450" stroke="#FF7D25" stroke-width="7" stroke-linecap="round" stroke-miterlimit="10" d="M170.584,71.138v71.621
	c0,2.136-1.521,3.858-5.057,3.858H46.524c-3.541,0-5.059-1.723-5.059-3.858V71.138c0-2.132,1.518-3.857,5.059-3.857h38.196v-9.171
	c0-3.052,2.474-5.529,5.531-5.529h31.549c3.056,0,5.529,2.478,5.529,5.529v9.171h38.197
	C169.063,67.28,170.584,69.006,170.584,71.138z"/>
<rect x="47.549" y="63.883" fill="#FFFFFF" stroke="#FF7D25" stroke-width="7" stroke-linecap="round" stroke-miterlimit="10" width="18.597" height="3.962"/>
<g>
	<defs>
		<path id="SVGID_55_" d="M135.251,135.412c16.575-16.574,16.571-43.443-0.001-60.014c-16.577-16.579-43.441-16.579-60.016-0.002
			c-16.577,16.574-16.577,43.438,0.002,60.016C91.807,151.984,118.675,151.988,135.251,135.412z"/>
	</defs>
	<use xlink:href="#SVGID_55_"  overflow="visible" fill="#F99450"/>
	<clipPath id="SVGID_2_">
		<use xlink:href="#SVGID_55_"  overflow="visible"/>
	</clipPath>
	<use xlink:href="#SVGID_55_"  overflow="visible" fill="none" stroke="#FF7D25" stroke-width="8" stroke-miterlimit="10"/>
</g>
<g>
	<path fill="#FFFFFF" d="M105.287,70.587c18.854,0,34.191,15.339,34.191,34.193c0,18.853-15.338,34.189-34.191,34.189
		s-34.191-15.337-34.191-34.189C71.096,85.926,86.434,70.587,105.287,70.587 M105.287,64.587c-22.197,0-40.191,17.994-40.191,40.193
		c0,22.196,17.994,40.189,40.191,40.189s40.191-17.993,40.191-40.189C145.479,82.581,127.484,64.587,105.287,64.587L105.287,64.587z
		"/>
</g>
</svg>
