<?xml version="1.0" encoding="utf-8"?>
<!-- Generator: Adobe Illustrator 16.0.0, SVG Export Plug-In . SVG Version: 6.00 Build 0)  -->
<!DOCTYPE svg PUBLIC "-//W3C//DTD SVG 1.1//EN" "http://www.w3.org/Graphics/SVG/1.1/DTD/svg11.dtd">
<svg version="1.1" id="Layer_1" xmlns="http://www.w3.org/2000/svg" xmlns:xlink="http://www.w3.org/1999/xlink" x="0px" y="0px"
	 width="126.217px" height="123.016px" viewBox="41.188 42.292 126.217 123.016"
	 enable-background="new 41.188 42.292 126.217 123.016" xml:space="preserve">
<g>
	<g>
		<polygon id="SVGID_113_" fill="#FF7D25" points="69.599,57.644 157.078,145.215 165.3,162.514 147.956,154.322 60.476,66.753 		
			"/>
	</g>
	<g>
		<defs>
			<polygon id="SVGID_2_" points="69.599,57.644 157.078,145.215 165.3,162.514 147.956,154.322 60.476,66.753 			"/>
		</defs>
		<clipPath id="SVGID_3_">
			<use xlink:href="#SVGID_2_"  overflow="visible"/>
		</clipPath>
		<polygon clip-path="url(#SVGID_3_)" fill="#FFFFFF" points="166.268,155.564 157.951,163.72 146.311,155.82 159.104,143.032 		"/>
	</g>
	<g>
		<defs>
			<polygon id="SVGID_4_" points="69.599,57.644 157.078,145.215 165.3,162.514 147.956,154.322 60.476,66.753 			"/>
		</defs>
		<clipPath id="SVGID_5_">
			<use xlink:href="#SVGID_4_"  overflow="visible"/>
		</clipPath>
		<polygon clip-path="url(#SVGID_5_)" fill="#FF7D25" points="159.232,159.707 162.377,155.977 166.611,163.753 		"/>
	</g>
	<g>
		<polygon id="SVGID_1_" fill="none" stroke="#FF7D25" stroke-width="2" stroke-miterlimit="10" points="69.599,57.644 
			157.078,145.215 165.3,162.514 147.956,154.322 60.476,66.753 		"/>
	</g>
</g>
<g>
	
		<rect x="57.751" y="93.426" transform="matrix(0.7071 -0.7071 0.7071 0.7071 -45.3902 102.2693)" fill="#F99450" width="86.008" height="25"/>
	<path fill="#FFFFFF" d="M122.323,69.855l14.5,14.5l-57.64,57.64l-14.5-14.5L122.323,69.855 M122.323,63.5l-3.179,3.178
		l-57.64,57.641l-3.178,3.178l3.178,3.178l14.5,14.5l3.178,3.178l3.178-3.178l57.64-57.64l3.179-3.178l-3.179-3.178l-14.5-14.5
		L122.323,63.5L122.323,63.5z"/>
</g>
<rect x="93.109" y="30.401" transform="matrix(0.7071 0.7071 -0.7071 0.7071 103.4791 -42.2146)" fill="#FFFFFF" stroke="#FF7D25" stroke-width="4" stroke-miterlimit="10" width="19.173" height="146.798"/>
<g>
	
		<line fill="none" stroke="#FF7D25" stroke-width="0.8988" stroke-miterlimit="10" x1="153.197" y1="56.981" x2="158.493" y2="62.276"/>
	
		<line fill="none" stroke="#FF7D25" stroke-width="0.8988" stroke-miterlimit="10" x1="149.701" y1="60.478" x2="154.998" y2="65.771"/>
	
		<line fill="none" stroke="#FF7D25" stroke-width="0.8988" stroke-miterlimit="10" x1="146.207" y1="63.973" x2="151.502" y2="69.268"/>
	
		<line fill="none" stroke="#FF7D25" stroke-width="0.8988" stroke-miterlimit="10" x1="142.711" y1="67.468" x2="148.007" y2="72.763"/>
	
		<line fill="none" stroke="#FF7D25" stroke-width="0.8988" stroke-miterlimit="10" x1="139.216" y1="70.963" x2="144.512" y2="76.258"/>
	
		<line fill="none" stroke="#FF7D25" stroke-width="0.8988" stroke-miterlimit="10" x1="135.721" y1="74.459" x2="141.016" y2="79.754"/>
	
		<line fill="none" stroke="#FF7D25" stroke-width="0.8988" stroke-miterlimit="10" x1="132.225" y1="77.954" x2="137.521" y2="83.249"/>
	
		<line fill="none" stroke="#FF7D25" stroke-width="0.8988" stroke-miterlimit="10" x1="128.73" y1="81.449" x2="134.025" y2="86.744"/>
	
		<line fill="none" stroke="#FF7D25" stroke-width="0.8988" stroke-miterlimit="10" x1="125.234" y1="84.945" x2="130.529" y2="90.24"/>
	
		<line fill="none" stroke="#FF7D25" stroke-width="0.8988" stroke-miterlimit="10" x1="121.738" y1="88.439" x2="127.034" y2="93.735"/>
	
		<line fill="none" stroke="#FF7D25" stroke-width="0.8988" stroke-miterlimit="10" x1="118.243" y1="91.936" x2="123.539" y2="97.23"/>
	
		<line fill="none" stroke="#FF7D25" stroke-width="0.8988" stroke-miterlimit="10" x1="114.748" y1="95.432" x2="120.044" y2="100.727"/>
	
		<line fill="none" stroke="#FF7D25" stroke-width="0.8988" stroke-miterlimit="10" x1="111.252" y1="98.926" x2="116.549" y2="104.222"/>
	
		<line fill="none" stroke="#FF7D25" stroke-width="0.8988" stroke-miterlimit="10" x1="107.757" y1="102.422" x2="113.053" y2="107.717"/>
	
		<line fill="none" stroke="#FF7D25" stroke-width="0.8988" stroke-miterlimit="10" x1="104.262" y1="105.917" x2="109.559" y2="111.213"/>
	
		<line fill="none" stroke="#FF7D25" stroke-width="0.8988" stroke-miterlimit="10" x1="100.767" y1="109.412" x2="106.062" y2="114.708"/>
	
		<line fill="none" stroke="#FF7D25" stroke-width="0.8988" stroke-miterlimit="10" x1="97.271" y1="112.908" x2="102.566" y2="118.203"/>
	
		<line fill="none" stroke="#FF7D25" stroke-width="0.8988" stroke-miterlimit="10" x1="93.775" y1="116.402" x2="99.071" y2="121.699"/>
	
		<line fill="none" stroke="#FF7D25" stroke-width="0.8988" stroke-miterlimit="10" x1="90.28" y1="119.898" x2="95.576" y2="125.193"/>
	
		<line fill="none" stroke="#FF7D25" stroke-width="0.8988" stroke-miterlimit="10" x1="86.785" y1="123.395" x2="92.081" y2="128.689"/>
	
		<line fill="none" stroke="#FF7D25" stroke-width="0.8988" stroke-miterlimit="10" x1="83.289" y1="126.891" x2="88.585" y2="132.186"/>
	
		<line fill="none" stroke="#FF7D25" stroke-width="0.8988" stroke-miterlimit="10" x1="79.794" y1="130.385" x2="85.09" y2="135.68"/>
	
		<line fill="none" stroke="#FF7D25" stroke-width="0.8988" stroke-miterlimit="10" x1="76.299" y1="133.881" x2="81.595" y2="139.176"/>
	
		<line fill="none" stroke="#FF7D25" stroke-width="0.8988" stroke-miterlimit="10" x1="72.803" y1="137.376" x2="78.1" y2="142.672"/>
	
		<line fill="none" stroke="#FF7D25" stroke-width="0.8988" stroke-miterlimit="10" x1="69.308" y1="140.871" x2="74.604" y2="146.167"/>
	
		<line fill="none" stroke="#FF7D25" stroke-width="0.8988" stroke-miterlimit="10" x1="65.812" y1="144.366" x2="71.108" y2="149.662"/>
	
		<line fill="none" stroke="#FF7D25" stroke-width="0.8988" stroke-miterlimit="10" x1="62.317" y1="147.861" x2="67.613" y2="153.158"/>
	
		<line fill="none" stroke="#FF7D25" stroke-width="0.8988" stroke-miterlimit="10" x1="58.821" y1="151.357" x2="64.117" y2="156.652"/>
	
		<line fill="none" stroke="#FF7D25" stroke-width="0.8988" stroke-miterlimit="10" x1="55.326" y1="154.854" x2="60.622" y2="160.148"/>
</g>
<g>
	
		<line fill="none" stroke="#FF7D25" stroke-width="1.7975" stroke-miterlimit="10" x1="149.77" y1="53.425" x2="158.668" y2="62.321"/>
	
		<line fill="none" stroke="#FF7D25" stroke-width="1.7975" stroke-miterlimit="10" x1="135.788" y1="67.406" x2="144.686" y2="76.303"/>
	
		<line fill="none" stroke="#FF7D25" stroke-width="1.7975" stroke-miterlimit="10" x1="121.807" y1="81.388" x2="130.705" y2="90.284"/>
	
		<line fill="none" stroke="#FF7D25" stroke-width="1.7975" stroke-miterlimit="10" x1="107.824" y1="95.369" x2="116.723" y2="104.266"/>
	
		<line fill="none" stroke="#FF7D25" stroke-width="1.7975" stroke-miterlimit="10" x1="93.844" y1="109.352" x2="102.74" y2="118.248"/>
	
		<line fill="none" stroke="#FF7D25" stroke-width="1.7975" stroke-miterlimit="10" x1="79.861" y1="123.333" x2="88.76" y2="132.229"/>
	
		<line fill="none" stroke="#FF7D25" stroke-width="1.7975" stroke-miterlimit="10" x1="65.88" y1="137.314" x2="74.777" y2="146.211"/>
	
		<line fill="none" stroke="#FF7D25" stroke-width="1.7975" stroke-miterlimit="10" x1="51.898" y1="151.296" x2="60.796" y2="160.191"/>
</g>
<path fill="#FF7D25" stroke="#FF7D25" stroke-width="3.6981" stroke-miterlimit="10" d="M58.334,63.158l-9.216-9.213
	c-0.461-0.462-0.573-1.099-0.253-1.421l6.644-6.647c0.32-0.317,0.958-0.205,1.422,0.257l9.213,9.215L58.334,63.158z"/>
<line fill="none" stroke="#FFFFFF" stroke-width="1.7" stroke-miterlimit="10" x1="51.489" y1="69.506" x2="75.177" y2="45.818"/>
</svg>
