<?xml version="1.0" encoding="utf-8"?>
<!-- Generator: Adobe Illustrator 16.0.4, SVG Export Plug-In . SVG Version: 6.00 Build 0)  -->
<!DOCTYPE svg PUBLIC "-//W3C//DTD SVG 1.1//EN" "http://www.w3.org/Graphics/SVG/1.1/DTD/svg11.dtd">
<svg version="1.1" id="Layer_1" xmlns="http://www.w3.org/2000/svg" xmlns:xlink="http://www.w3.org/1999/xlink" x="0px" y="0px"
	 width="210px" height="210px" viewBox="0 0 210 210" enable-background="new 0 0 210 210" xml:space="preserve">
<g>
	<defs>
		<circle id="SVGID_37_" cx="104.107" cy="106.218" r="95.283"/>
	</defs>
	<defs>
		<path id="SVGID_38_" d="M104.107,206.501c-55.296,0-100.283-44.987-100.283-100.283S48.811,5.935,104.107,5.935
			S204.39,50.922,204.39,106.218S159.403,206.501,104.107,206.501z M104.107,15.935c-49.782,0-90.283,40.501-90.283,90.283
			s40.501,90.283,90.283,90.283S194.39,156,194.39,106.218S153.889,15.935,104.107,15.935z"/>
	</defs>
	<use xlink:href="#SVGID_37_"  overflow="visible" fill="#FFFFFF"/>
	<use xlink:href="#SVGID_38_"  overflow="visible" fill="#FF7D25"/>
	<clipPath id="SVGID_2_">
		<use xlink:href="#SVGID_37_"  overflow="visible"/>
	</clipPath>
	<clipPath id="SVGID_4_" clip-path="url(#SVGID_2_)">
		<use xlink:href="#SVGID_38_"  overflow="visible"/>
	</clipPath>
</g>
<g>
	<rect x="66.264" y="62.092" fill="#FFFFFF" width="105.632" height="69.479"/>
	<path fill="#FF7D25" d="M171.896,135.071H66.264c-1.933,0-3.5-1.567-3.5-3.5V62.092c0-1.933,1.567-3.5,3.5-3.5h105.632
		c1.933,0,3.5,1.567,3.5,3.5v69.479C175.396,133.504,173.83,135.071,171.896,135.071z M69.764,128.071h98.632V65.592H69.764V128.071
		z"/>
</g>
<g>
	<polygon fill="#FF7D25" points="142.215,149.178 98.748,149.178 98.748,131.201 133.883,131.201 	"/>
	<path fill="#FF7D25" d="M142.215,152.178H98.748c-1.657,0-3-1.343-3-3v-17.977c0-1.657,1.343-3,3-3h35.135
		c1.168,0,2.23,0.679,2.722,1.738l8.333,17.977c0.431,0.929,0.358,2.014-0.193,2.877
		C144.192,151.655,143.239,152.178,142.215,152.178z M101.748,146.178h35.771l-5.551-11.977h-30.219V146.178z"/>
</g>
<g>
	<rect x="74.116" y="70.913" fill="#F99450" width="88.745" height="10.844"/>
</g>
<g>
	<rect x="74.116" y="85.467" fill="#F99450" width="88.745" height="38.808"/>
</g>
<g>
	<rect x="53.335" y="91.862" fill="#FFFFFF" width="45.204" height="56.991"/>
	<path fill="#FF7D25" d="M98.54,151.854H53.335c-1.657,0-3-1.343-3-3V91.862c0-1.657,1.343-3,3-3H98.54c1.657,0,3,1.343,3,3v56.991
		C101.54,150.511,100.196,151.854,98.54,151.854z M56.335,145.854H95.54V94.862H56.335V145.854z"/>
</g>
<g>
	<rect x="59.919" y="99.41" fill="#F99450" width="32.245" height="8.697"/>
</g>
<g>
	<rect x="59.919" y="111.342" fill="#F99450" width="32.245" height="30.871"/>
</g>
<g>
	<rect x="36.179" y="105.003" fill="#FFFFFF" width="27.753" height="44.504"/>
	<path fill="#FF7D25" d="M63.932,152.007H36.179c-1.381,0-2.5-1.119-2.5-2.5v-44.504c0-1.381,1.119-2.5,2.5-2.5h27.753
		c1.381,0,2.5,1.119,2.5,2.5v44.504C66.432,150.888,65.313,152.007,63.932,152.007z M38.679,147.007h22.753v-39.504H38.679V147.007z
		"/>
</g>
<g>
	<rect x="41.495" y="111.276" fill="#F99450" width="16.836" height="6.552"/>
</g>
<g>
	<rect x="41.495" y="120.588" fill="#F99450" width="16.836" height="22.934"/>
</g>
</svg>
