<?xml version="1.0" encoding="utf-8"?>
<!-- Generator: Adobe Illustrator 16.0.4, SVG Export Plug-In . SVG Version: 6.00 Build 0)  -->
<!DOCTYPE svg PUBLIC "-//W3C//DTD SVG 1.1//EN" "http://www.w3.org/Graphics/SVG/1.1/DTD/svg11.dtd">
<svg version="1.1" id="Layer_1" xmlns="http://www.w3.org/2000/svg" xmlns:xlink="http://www.w3.org/1999/xlink" x="0px" y="0px"
	 width="210px" height="210px" viewBox="0 0 210 210" enable-background="new 0 0 210 210" xml:space="preserve">
<circle fill="#FFFFFF" stroke="#FF7D25" stroke-width="10" stroke-linecap="round" stroke-miterlimit="10" cx="104.716" cy="103.768" r="95.283"/>
<rect x="92.625" y="86.632" fill="#FF7D25" stroke="#FF7D25" stroke-width="4" stroke-miterlimit="10" width="25.213" height="37.807"/>
<polygon fill="#FF7D25" stroke="#FF7D25" stroke-width="4" stroke-miterlimit="10" points="105,25.054 92.621,52.031 92.621,94.08 
	117.841,94.08 117.841,52.031 "/>
<path fill="#FFFFFF" stroke="#FFFFFF" stroke-width="3.5304" stroke-miterlimit="10" d="M105.175,67.933
	c-3.11,0-5.631-2.519-5.631-5.646c0-3.11,2.521-5.645,5.631-5.645c3.127,0,5.646,2.534,5.646,5.645
	C110.82,65.414,108.302,67.933,105.175,67.933z"/>
<polygon fill="#FF7D25" stroke="#FF7D25" stroke-width="4" stroke-miterlimit="10" points="85.469,105.376 66.66,131.973 
	85.469,131.973 "/>
<polygon fill="#FF7D25" stroke="#FF7D25" stroke-width="4" stroke-miterlimit="10" points="125.141,105.376 143.954,131.973 
	125.141,131.973 "/>
<path fill="#FF7D25" d="M121.35,146.969c0,2.298-1.037,6.062-2.537,10.353c-0.606-2.312-2.248-3.955-4.162-3.955
	c-2.457,0-4.451,2.68-4.451,5.998c0,2.408,1.068,4.498,2.6,5.439c1.532,0.976,1.382,4.066,0.813,5.55
	c-3.509,8.103-6.874,14.979-6.874,14.979s-1.468-9.332-4.036-14.213c-2.313-4.436-2.393-4.498-0.19-4.498
	c2.199,0,3.986-2.297,3.986-5.137c0-2.823-1.787-5.12-3.986-5.12c-0.208,0-0.415,0.016-0.638,0.064c0.462-1.212,0.7-2.585,0.7-4.021
	c0-5.121-3.11-9.268-6.938-9.268c-2.313,0-4.354,1.483-5.616,3.781c0.033-8.631,7.036-15.616,15.665-15.616
	C114.331,131.307,121.35,138.324,121.35,146.969z"/>
<path fill="#FF7D25" d="M95.756,157.774c1.017-1.768,0.082-4.434-2.037-4.434s-3.596,2.417-3.596,6.233
	c0,3.811,2.876,7.86,2.876,7.86S92.52,163.405,95.756,157.774z"/>
<path fill="#FF7D25" d="M97.306,171.948c-0.533-0.925-0.044-2.327,1.065-2.327c1.111,0,1.885,1.271,1.885,3.269
	c0,2-1.506,4.121-1.506,4.121S99,174.898,97.306,171.948z"/>
</svg>
