<svg style="position: absolute; top: 0; z-index:-10"><defs> <circle id="copywriting-SVGID_111_" cx="356.283" cy="105.12" r="95.283"/>  <polygon id="design-SVGID_113_" points="69.599,57.644 157.078,145.215 165.3,162.514 147.956,154.322 60.476,66.753 		"/>  <linearGradient id="floatgradient-linearGradient" x2="0%" y2="100%"> <stop id="floatgradient-stop1" class="stop1" offset="100%" stop-color="#ff7d25"/> <stop id="floatgradient-stop2" class="stop2" offset="100%" stop-color="#FF7D25"/> </linearGradient>  <circle id="graphics-SVGID_39_" cx="104.482" cy="106.252" r="95.283"/>  <circle id="performanceAlt-SVGID_111_" cx="104.296" cy="105.12" r="95.283"/>  <path id="photography-SVGID_55_" d="M135.251,135.412c16.575-16.574,16.571-43.443-0.001-60.014c-16.577-16.579-43.441-16.579-60.016-0.002
			c-16.577,16.574-16.577,43.438,0.002,60.016C91.807,151.984,118.675,151.988,135.251,135.412z"/>  <polygon id="process-mobile-SVGID_2_" points="69.599,57.644 157.078,145.215 165.3,162.514 147.956,154.322 60.476,66.753 			"/>  <circle id="responsive-SVGID_37_" cx="104.107" cy="106.218" r="95.283"/> </defs><symbol viewBox="0 0 210 210" id="icon-analytics"><title>analytics</title> <circle fill="#FFFFFF" cx="104.819" cy="105.93" r="95"/> <g> <path fill="#F99450" d="M197.156,129.02c-0.431,1.79-0.92,3.551-1.46,5.29c-12.061,38.801-48.25,66.98-91.011,66.98
		c-41.51,0-76.819-26.54-89.88-63.58c-0.46-1.29-0.89-2.59-1.279-3.91l18.47-21.77l32.31,27.25l38.53-38.9l34.22,26.1l32.08-59.899
		L197.156,129.02z"/> <path fill="#FF7D25" d="M172.326,65.14c-0.55-1.21-1.74-2.01-3.07-2.06c-1.34-0.021-2.58,0.67-3.21,1.84l-30.13,56.28l-30.96-23.61
		c-1.4-1.06-3.37-0.92-4.61,0.33l-36.26,36.61l-29.83-25.181c-1.479-1.239-3.68-1.06-4.93,0.42l-16.95,19.98
		c0.35,1.36,0.73,2.71,1.15,4.05c0.39,1.32,0.819,2.62,1.279,3.91l17.601-20.75l29.64,25c1.4,1.18,3.46,1.08,4.74-0.21l36.37-36.72
		l31.779,24.229c0.82,0.62,1.87,0.86,2.87,0.641c1-0.221,1.86-0.86,2.341-1.771l28.71-53.62l26.84,59.8
		c0.54-1.739,1.029-3.5,1.46-5.29c0.479-1.899,0.899-3.83,1.25-5.779L172.326,65.14z"/> </g> <circle fill="#FFFFFF" stroke="#FF7D25" stroke-width="3.7666" stroke-miterlimit="10" cx="32.083" cy="113.271" r="4.304"/> <circle fill="#FFFFFF" stroke="#FF7D25" stroke-width="3.7666" stroke-miterlimit="10" cx="64.303" cy="139.284" r="4.305"/> <circle fill="#FFFFFF" stroke="#FF7D25" stroke-width="3.7666" stroke-miterlimit="10" cx="102.925" cy="100.539" r="4.305"/> <circle fill="#FFFFFF" stroke="#FF7D25" stroke-width="3.7666" stroke-miterlimit="10" cx="137.139" cy="124.979" r="4.305"/> <circle fill="#FFFFFF" stroke="#FF7D25" stroke-width="3.7666" stroke-miterlimit="10" cx="168.727" cy="66.767" r="4.305"/> <g> <path fill="#FF7D25" d="M104.686,206.29c-42.467,0-80.482-26.892-94.596-66.917c-0.515-1.445-0.961-2.811-1.359-4.158
		c-0.405-1.292-0.816-2.739-1.197-4.221C5.451,122.852,4.396,114.443,4.396,106c0-55.295,44.989-100.28,100.289-100.28
		c55.295,0,100.28,44.985,100.28,100.28c0,6.123-0.553,12.228-1.643,18.146c-0.359,2.003-0.805,4.062-1.319,6.098
		c-0.429,1.784-0.949,3.669-1.532,5.549c-6.216,19.998-18.921,37.954-35.773,50.562C147.265,199.396,126.513,206.29,104.686,206.29z
		 M104.686,15.72c-49.785,0-90.289,40.5-90.289,90.28c0,7.609,0.95,15.183,2.823,22.512c0.337,1.308,0.699,2.586,1.078,3.793
		c0.369,1.248,0.759,2.44,1.218,3.726c12.711,36.05,46.936,60.26,85.17,60.26c19.65,0,38.332-6.205,54.022-17.943
		c15.179-11.355,26.619-27.521,32.214-45.521c0.52-1.672,0.981-3.347,1.373-4.976c0.471-1.867,0.867-3.697,1.19-5.494
		c0.983-5.343,1.48-10.839,1.48-16.355C194.966,56.22,154.466,15.72,104.686,15.72z"/> </g> </symbol><symbol viewBox="32.125 13.875 33.75 72" id="icon-arrow"><title>arrow</title> <g id="arrow-Your_Icon"> <path d="M33.279,14.619c-1.361,1.137-1.545,3.15-0.41,4.514l25.629,30.742L32.869,80.617c-1.133,1.361-0.947,3.381,0.41,4.514
		c1.357,1.135,3.381,0.951,4.514-0.408l27.338-32.795c0.496-0.594,0.744-1.324,0.744-2.053c0-0.73-0.248-1.459-0.744-2.053
		L37.793,15.027C36.66,13.668,34.639,13.484,33.279,14.619z"/> </g> </symbol><symbol viewBox="14.259 -2.593 74.075 74.09" id="icon-check"><title>check</title> <path fill="#FFFFFF" d="M52.361-2.577C31.914-3.165,14.862,12.932,14.275,33.38c-0.01,0.359-0.016,0.72-0.016,1.08
	c0,20.454,16.582,37.037,37.038,37.037c20.454,0,37.037-16.583,37.037-37.037C88.342,14.413,72.398-2.001,52.361-2.577z
	 M67.801,16.126l7.338,7.338L53.125,45.455l-7.337,7.338l-7.315-7.338L27.453,34.46l7.338-7.338l10.996,10.995L67.801,16.126z"/> </symbol><symbol viewBox="25.099 31.095 152.036 154.529" id="icon-contact-mobile"><title>contact-mobile</title> <circle fill="none" stroke="#FF7D25" stroke-width="7" stroke-miterlimit="10" cx="115.848" cy="92.383" r="57.788"/> <line fill="none" stroke="#FF7D25" stroke-width="10" stroke-miterlimit="10" x1="76.587" y1="134.73" x2="38.525" y2="172.791"/> <path fill="none" stroke="#FF7D25" stroke-width="10" stroke-miterlimit="10" d="M64.994,158.609l-20.33,20.33
	c-4.62-3.659-8.89-7.76-12.74-12.211l20.591-20.59c3.449-3.449,9.029-3.449,12.479,0C68.435,149.58,68.435,155.17,64.994,158.609z"/> </symbol><symbol viewBox="0 0 210 210" id="icon-copywriting"><title>copywriting</title> <path fill="#FF7D25" d="M199.585,80.22c0-0.02,0-0.03-0.01-0.04c0-0.01,0-0.02-0.01-0.029c-0.011-0.04-0.021-0.091-0.03-0.131
	c0-0.01,0-0.02-0.01-0.02c0,0,0,0,0-0.01c-0.01-0.03-0.021-0.07-0.03-0.101c-0.01-0.04-0.01-0.05-0.01-0.05
	c-6.57-24-22.69-44.96-43.78-58.04c-21.13-13.1-46.95-17.76-71.34-13.03c-23.771,4.61-45.561,18.131-60.22,37.4
	C9.085,65.97,1.766,90.88,4.005,115.68c2.21,24.471,13.61,47.51,31.61,64.21c18.42,17.101,43.03,26.721,68.16,26.62
	c24.85-0.1,49.16-9.689,67.38-26.609c18.05-16.761,29.55-39.98,31.64-64.551C203.795,103.56,202.735,91.63,199.585,80.22z"/> <circle fill="#FFFFFF" cx="103.796" cy="106.653" r="90.118"/> <g> <g> <g> <path fill="#F99450" d="M126.148,18.96v94.72h-90.26V46.06c0.65-0.72,1.32-1.439,2-2.14c2.4-2.5,4.94-4.86,7.61-7.061
				c1.029-0.859,2.09-1.699,3.16-2.5c1.14-0.869,2.3-1.699,3.479-2.5c5.45-3.739,11.33-6.89,17.54-9.369
				c2.32-0.94,4.69-1.771,7.1-2.5c3.36-1.03,6.79-1.87,10.301-2.5c5.26-0.95,10.67-1.45,16.199-1.45c7.181,0,14.17,0.84,20.87,2.42
				C124.818,18.62,125.488,18.779,126.148,18.96z"/> <path fill="#FF7D25" d="M126.398,18.87c-0.66-0.181-1.33-0.34-2-0.5v94.31h-86.26V42.98c-0.68,0.7-1.35,1.42-2,2.14
				c-0.68,0.75-1.35,1.521-2,2.3v67.26c0,1.101,0.9,2,2,2h90.26c1.11,0,2-0.899,2-2V19.41
				C127.729,19.22,127.068,19.04,126.398,18.87z"/> </g> <g> <g> <path fill="#FFFFFF" d="M118.219,17.4v5h-48.29c2.32-0.94,4.69-1.771,7.1-2.5c3.36-1.03,6.79-1.87,10.301-2.5H118.219z"/> </g> <g> <path fill="#FFFFFF" d="M118.219,31.77v5h-72.47c1.029-0.859,2.09-1.699,3.16-2.5c1.14-0.869,2.3-1.699,3.479-2.5H118.219z"/> </g> <g> <rect x="43.409" y="46.142" fill="#FFFFFF" width="74.806" height="5"/> </g> <g> <rect x="43.409" y="60.514" fill="#FFFFFF" width="74.806" height="5"/> </g> <g> <rect x="43.41" y="74.887" fill="#FFFFFF" width="74.806" height="5"/> </g> <g> <line fill="none" x1="43.41" y1="91.759" x2="89.939" y2="91.759"/> <rect x="43.41" y="89.259" fill="#FFFFFF" width="46.529" height="5"/> </g> </g> </g> <g> <g> <path fill="#F99450" d="M24.068,62.87v51.81h-10.97c-0.06-0.67-0.11-1.33-0.15-2c-0.14-1.97-0.199-3.95-0.199-5.95
				c0-14.359,3.35-27.949,9.319-40.029C22.698,65.41,23.369,64.13,24.068,62.87z"/> <path fill="#FF7D25" d="M24.068,62.87c-0.699,1.26-1.37,2.54-2,3.83v45.979h-9.12c0.04,0.67,0.091,1.33,0.15,2
				c0.05,0.67,0.12,1.34,0.2,2h10.77c1.101,0,2-0.899,2-2V59.43C25.379,60.56,24.709,61.7,24.068,62.87z"/> </g> </g> <g> <g> <path fill="#F99450" d="M190.259,79.89c-0.26-0.84-0.53-1.67-0.82-2.5c-0.279-0.84-0.58-1.68-0.899-2.5
				c-1.2-3.22-2.58-6.35-4.141-9.38c-0.43-0.84-0.87-1.68-1.33-2.5c-0.46-0.84-0.939-1.68-1.43-2.5c-1.93-3.26-4.07-6.39-6.4-9.37
				c-0.64-0.85-1.319-1.68-2.01-2.5c-0.7-0.85-1.42-1.68-2.16-2.5c-3.01-3.359-6.27-6.5-9.76-9.37c-1.03-0.859-2.09-1.699-3.16-2.5
				c-1.14-0.869-2.3-1.699-3.479-2.5c-4.46-3.06-9.21-5.729-14.19-7.96c-0.66-0.3-1.33-0.58-2-0.859v91.729h55.48
				c0.06-0.67,0.109-1.33,0.149-2c0.141-1.97,0.2-3.95,0.2-5.95C194.309,97.39,192.889,88.38,190.259,79.89z"/> <path fill="#FF7D25" d="M140.479,112.68V23.81c-0.66-0.3-1.33-0.58-2-0.859c-0.66-0.28-1.33-0.55-2-0.811v92.54
				c0,1.101,0.891,2,2,2h55.28c0.08-0.66,0.15-1.33,0.2-2c0.06-0.67,0.109-1.33,0.149-2H140.479z"/> </g> <g> <g> <path fill="#FFFFFF" d="M161.309,36.77h-15.57v-5h8.931c1.18,0.801,2.34,1.631,3.479,2.5
					C159.219,35.07,160.278,35.91,161.309,36.77z"/> </g> <g> <path fill="#FFFFFF" d="M175.238,51.14h-29.5v-5h25.33c0.74,0.82,1.46,1.65,2.16,2.5C173.919,49.46,174.599,50.29,175.238,51.14
					z"/> </g> <g> <path fill="#FFFFFF" d="M184.398,65.51h-38.66v-5h35.9c0.49,0.82,0.97,1.66,1.43,2.5C183.528,63.83,183.969,64.67,184.398,65.51
					z"/> </g> <g> <path fill="#FFFFFF" d="M190.259,79.89h-44.51v-5h42.79c0.319,0.82,0.62,1.66,0.899,2.5
					C189.729,78.22,189.999,79.05,190.259,79.89z"/> </g> <g> <rect x="145.744" y="89.259" fill="#FFFFFF" width="39.601" height="5"/> </g> </g> </g> <g> <g> <path fill="#F99450" d="M62.398,126.28v61.359c-0.67-0.33-1.34-0.68-2-1.04c-2.529-1.37-4.979-2.859-7.35-4.46
				c-1.2-0.8-2.39-1.63-3.54-2.5c-1.09-0.8-2.16-1.64-3.21-2.5c-3.53-2.87-6.851-6-9.91-9.37c-0.74-0.819-1.47-1.649-2.18-2.5
				c-0.7-0.819-1.38-1.649-2.05-2.5c-2.341-2.97-4.511-6.1-6.471-9.369c-0.5-0.82-0.979-1.65-1.45-2.5
				c-0.46-0.82-0.909-1.66-1.35-2.5c-3.28-6.311-5.83-13.051-7.55-20.12c-0.17-0.66-0.32-1.33-0.46-2H62.398z"/> <path fill="#FF7D25" d="M62.398,124.28H14.459c0.12,0.67,0.26,1.34,0.42,2c0.14,0.67,0.29,1.34,0.46,2h45.06V186.6
				c0.66,0.36,1.33,0.71,2,1.04c0.67,0.351,1.33,0.681,2,0.99v-62.35C64.398,125.18,63.509,124.28,62.398,124.28z"/> </g> <g> <g> <path fill="#FFFFFF" d="M54.219,148.4v5h-28.53c-0.5-0.82-0.979-1.65-1.45-2.5c-0.46-0.82-0.909-1.66-1.35-2.5H54.219z"/> </g> <g> <path fill="#FFFFFF" d="M54.219,162.77v5h-17.83c-0.74-0.819-1.47-1.649-2.18-2.5c-0.7-0.819-1.38-1.649-2.05-2.5H54.219z"/> </g> <g> <path fill="#FFFFFF" d="M54.219,177.14v5h-1.17c-1.2-0.8-2.39-1.63-3.54-2.5c-1.09-0.8-2.16-1.64-3.21-2.5H54.219z"/> </g> </g> </g> <g> <g> <path fill="#F99450" d="M178.809,157.4c-0.64,0.97-1.31,1.909-2,2.85v-33.97h15.37c-0.14,0.67-0.29,1.34-0.46,2
				c-1.72,7.069-4.271,13.81-7.55,20.12c-0.03,0.05-0.05,0.109-0.09,0.159C182.499,151.61,180.738,154.57,178.809,157.4z"/> <path fill="#FF7D25" d="M176.809,124.28c-1.1,0-2,0.899-2,2v36.6c0.69-0.86,1.36-1.74,2-2.63c0.69-0.94,1.36-1.88,2-2.85v-29.12
				h12.91c0.17-0.66,0.32-1.33,0.46-2c0.16-0.66,0.3-1.33,0.42-2H176.809z"/> </g> <g> <g> <path fill="#FFFFFF" d="M184.169,148.4c-0.03,0.05-0.05,0.109-0.09,0.159V148.4H184.169z"/> </g> <g> <line fill="none" x1="184.278" y1="165.27" x2="184.079" y2="165.27"/> </g> </g> </g> <g> <g> <path fill="#F99450" d="M164.738,126.28v47.43c-0.659,0.61-1.329,1.2-2,1.78c-1.989,1.72-4.05,3.35-6.189,4.88l-1.245,1.05
				l-1.295,0.72c-5.6,3.771-11.65,6.931-18.04,9.37c-2.43,0.94-4.91,1.78-7.44,2.5c-3.76,1.08-7.609,1.92-11.54,2.5
				c-4.39,0.66-8.89,1-13.46,1c-4.569,0-9.069-0.34-13.46-1c-2.819-0.42-5.6-0.97-8.33-1.649c-1.779-0.431-3.529-0.921-5.26-1.471
				c-0.67-0.2-1.33-0.42-2-0.649v-66.46H164.738z"/> <path fill="#FF7D25" d="M164.738,124.28h-90.26c-1.109,0-2,0.899-2,2v65.76c0.66,0.24,1.33,0.479,2,0.7
				c0.67,0.229,1.33,0.449,2,0.649V128.28h86.26v47.21c0.671-0.58,1.341-1.17,2-1.78c0.681-0.62,1.341-1.24,2-1.89v-45.54
				C166.738,125.18,165.839,124.28,164.738,124.28z"/> </g> <g> <g> <rect x="81.741" y="148.396" fill="#FFFFFF" width="74.807" height="5"/> </g> <g> <rect x="81.742" y="162.769" fill="#FFFFFF" width="74.806" height="5"/> </g> <g> <polygon fill="#FFFFFF" points="156.549,177.14 156.549,180.419 155.304,181.357 153.99,182.14 81.738,182.14 81.738,177.14 
									"/> </g> <g> <path fill="#FFFFFF" d="M135.969,191.51c-2.43,0.94-4.91,1.78-7.44,2.5c-3.76,1.08-7.609,1.92-11.54,2.5h-26.92
					c-2.819-0.42-5.6-0.97-8.33-1.649v-3.351H135.969z"/> </g> </g> </g> </g> <g>  <use xlink:href="#copywriting-SVGID_111_" overflow="visible" fill="#FFFFFF"/> <clipPath id="copywriting-SVGID_2_"> <use xlink:href="#copywriting-SVGID_111_" overflow="visible"/> </clipPath> <g clip-path="url(#copywriting-SVGID_2_)"> <polyline fill="none" stroke="#FF7D25" stroke-width="8.691" stroke-miterlimit="10" points="494.948,130.995 459.609,85.91 
			421.973,130.995 386.931,85.91 349.134,130.995 313.796,85.91 276.156,130.995 240.817,85.91 202.833,130.995 		"/> </g> <use xlink:href="#copywriting-SVGID_111_" overflow="visible" fill="none" stroke="#FF7D25" stroke-width="10" stroke-miterlimit="10"/> </g> </symbol><symbol viewBox="0 0 210 210" id="icon-customcms"><title>customcms</title> <path fill="#FFFFFF" stroke="#FF7D25" stroke-width="10" stroke-miterlimit="10" d="M38.218,40.687
	c4.603-4.603,9.554-8.633,14.778-12.09c9.666-6.414,20.237-10.877,31.169-13.379c30.915-7.113,64.708,1.379,88.799,25.469
	c37.216,37.215,37.216,97.547,0.007,134.754c-3.535,3.535-7.275,6.739-11.193,9.596c-9.207,6.746-19.346,11.625-29.91,14.637
	c-32.202,9.207-68.293,1.132-93.656-24.232C1.003,138.233,1.003,77.901,38.218,40.687z"/> <path fill="#F99450" stroke="#FF7D25" stroke-width="7" stroke-linecap="round" stroke-miterlimit="10" d="M27.959,160.544
	c-6.413-9.666-10.875-20.236-13.378-31.169l63.258-63.257L65.111,53.39l55.069-7.17l-7.34,54.899l-12.728-12.728L27.959,160.544z"/> <path fill="#F99450" stroke="#FF7D25" stroke-width="7" stroke-linecap="round" stroke-miterlimit="10" d="M98.951,107.564
	l12.729,12.729l70.145-70.146c6.746,9.207,11.625,19.347,14.638,29.911l-62.509,62.509l12.728,12.728l-55.068,7.155L98.951,107.564z
	"/> </symbol><symbol viewBox="0 0 210 210" id="icon-customlayout"><title>customlayout</title> <circle fill="#FFFFFF" cx="104.25" cy="105.277" r="94.5"/> <path fill="none" stroke="#FF7D25" stroke-width="8" stroke-linecap="round" stroke-linejoin="round" stroke-miterlimit="10" d="
	M14.319,72.622c2.14-5.96,4.86-11.641,8.09-16.98h132.5v129.74c-3.96,2.52-8.13,4.75-12.47,6.66c-11.75,5.18-24.75,8.06-38.42,8.06
	c-0.68,0-1.35-0.01-2.02-0.02c-3.49-0.07-6.94-0.33-10.33-0.78c-37.71-4.87-68.51-31.8-79.03-67.44
	c-2.54-8.569-3.9-17.649-3.9-27.039c0-7.551,0.88-14.891,2.54-21.931"/> <path fill="#F99450" d="M142.439,131.861v60.181c-11.75,5.18-24.75,8.06-38.42,8.06c-0.68,0-1.35-0.01-2.02-0.02v-68.221H142.439z"/> <path fill="#F99450" d="M91.669,131.861v67.44c-37.71-4.87-68.51-31.8-79.03-67.44H91.669z"/> <polygon fill="#F99450" points="14.319,72.622 142.709,72.622 142.709,122.462 11.279,122.462 11.279,82.892 "/> <path fill="none" stroke="#FF7D25" stroke-width="10" stroke-miterlimit="10" d="M199.31,104.822c0,33.909-17.71,63.68-44.4,80.56
	c-3.96,2.52-8.13,4.75-12.47,6.66c-11.75,5.18-24.75,8.06-38.42,8.06c-0.68,0-1.35-0.01-2.02-0.02c-3.49-0.07-6.94-0.33-10.33-0.78
	c-37.71-4.87-68.51-31.8-79.03-67.44c-2.54-8.569-3.9-17.649-3.9-27.039c0-7.551,0.88-14.891,2.54-21.931
	c0.82-3.5,1.84-6.93,3.04-10.27c2.14-5.96,4.86-11.641,8.09-16.98c16.67-27.63,46.98-46.1,81.61-46.1
	C156.649,9.542,199.31,52.202,199.31,104.822z"/> </symbol><symbol viewBox="0 0 210 210" id="icon-design"><title>design</title> <circle fill="#FFFFFF" stroke="#FF7D25" stroke-width="10" stroke-linecap="round" stroke-miterlimit="10" cx="105.357" cy="105.327" r="95.283"/> <g>  <use xlink:href="#design-SVGID_113_" overflow="visible" fill="#FF7D25"/> <clipPath id="design-SVGID_2_"> <use xlink:href="#design-SVGID_113_" overflow="visible"/> </clipPath> <polygon clip-path="url(#design-SVGID_2_)" fill="#FFFFFF" points="166.267,155.565 157.951,163.72 146.311,155.82 159.103,143.032 	"/> <polygon clip-path="url(#design-SVGID_2_)" fill="#FF7D25" points="159.233,159.707 162.377,155.977 166.612,163.753 	"/> <use xlink:href="#design-SVGID_113_" overflow="visible" fill="none" stroke="#FF7D25" stroke-width="2" stroke-miterlimit="10"/> </g> <g> <rect x="57.749" y="93.425" transform="matrix(-0.7071 0.7071 -0.7071 -0.7071 246.8973 109.5824)" fill="#F99450" width="86.009" height="25"/> <path fill="#FFFFFF" d="M122.323,69.855l14.5,14.5l-57.64,57.64l-14.5-14.5L122.323,69.855 M122.323,63.5l-3.178,3.178
		l-57.64,57.64l-3.178,3.178l3.178,3.178l14.5,14.5l3.178,3.178l3.178-3.178l57.64-57.64l3.178-3.178l-3.178-3.178l-14.5-14.5
		L122.323,63.5L122.323,63.5z"/> </g> <rect x="93.11" y="30.398" transform="matrix(-0.7071 -0.7071 0.7071 -0.7071 101.917 249.8121)" fill="#FFFFFF" stroke="#FF7D25" stroke-width="4" stroke-miterlimit="10" width="19.173" height="146.8"/> <g> <line fill="none" stroke="#FF7D25" stroke-width="0.8988" stroke-miterlimit="10" x1="153.197" y1="56.981" x2="158.493" y2="62.276"/> <line fill="none" stroke="#FF7D25" stroke-width="0.8988" stroke-miterlimit="10" x1="149.701" y1="60.478" x2="154.998" y2="65.771"/> <line fill="none" stroke="#FF7D25" stroke-width="0.8988" stroke-miterlimit="10" x1="146.207" y1="63.973" x2="151.502" y2="69.268"/> <line fill="none" stroke="#FF7D25" stroke-width="0.8988" stroke-miterlimit="10" x1="142.711" y1="67.468" x2="148.007" y2="72.763"/> <line fill="none" stroke="#FF7D25" stroke-width="0.8988" stroke-miterlimit="10" x1="139.216" y1="70.963" x2="144.512" y2="76.258"/> <line fill="none" stroke="#FF7D25" stroke-width="0.8988" stroke-miterlimit="10" x1="135.721" y1="74.459" x2="141.016" y2="79.754"/> <line fill="none" stroke="#FF7D25" stroke-width="0.8988" stroke-miterlimit="10" x1="132.225" y1="77.954" x2="137.521" y2="83.249"/> <line fill="none" stroke="#FF7D25" stroke-width="0.8988" stroke-miterlimit="10" x1="128.73" y1="81.449" x2="134.025" y2="86.744"/> <line fill="none" stroke="#FF7D25" stroke-width="0.8988" stroke-miterlimit="10" x1="125.234" y1="84.945" x2="130.53" y2="90.24"/> <line fill="none" stroke="#FF7D25" stroke-width="0.8988" stroke-miterlimit="10" x1="121.738" y1="88.439" x2="127.034" y2="93.735"/> <line fill="none" stroke="#FF7D25" stroke-width="0.8988" stroke-miterlimit="10" x1="118.243" y1="91.936" x2="123.539" y2="97.23"/> <line fill="none" stroke="#FF7D25" stroke-width="0.8988" stroke-miterlimit="10" x1="114.748" y1="95.432" x2="120.044" y2="100.727"/> <line fill="none" stroke="#FF7D25" stroke-width="0.8988" stroke-miterlimit="10" x1="111.252" y1="98.926" x2="116.549" y2="104.222"/> <line fill="none" stroke="#FF7D25" stroke-width="0.8988" stroke-miterlimit="10" x1="107.757" y1="102.422" x2="113.053" y2="107.717"/> <line fill="none" stroke="#FF7D25" stroke-width="0.8988" stroke-miterlimit="10" x1="104.262" y1="105.917" x2="109.558" y2="111.213"/> <line fill="none" stroke="#FF7D25" stroke-width="0.8988" stroke-miterlimit="10" x1="100.767" y1="109.412" x2="106.062" y2="114.708"/> <line fill="none" stroke="#FF7D25" stroke-width="0.8988" stroke-miterlimit="10" x1="97.271" y1="112.908" x2="102.566" y2="118.203"/> <line fill="none" stroke="#FF7D25" stroke-width="0.8988" stroke-miterlimit="10" x1="93.775" y1="116.403" x2="99.071" y2="121.699"/> <line fill="none" stroke="#FF7D25" stroke-width="0.8988" stroke-miterlimit="10" x1="90.28" y1="119.898" x2="95.576" y2="125.194"/> <line fill="none" stroke="#FF7D25" stroke-width="0.8988" stroke-miterlimit="10" x1="86.785" y1="123.394" x2="92.081" y2="128.689"/> <line fill="none" stroke="#FF7D25" stroke-width="0.8988" stroke-miterlimit="10" x1="83.289" y1="126.89" x2="88.585" y2="132.185"/> <line fill="none" stroke="#FF7D25" stroke-width="0.8988" stroke-miterlimit="10" x1="79.794" y1="130.385" x2="85.09" y2="135.68"/> <line fill="none" stroke="#FF7D25" stroke-width="0.8988" stroke-miterlimit="10" x1="76.299" y1="133.881" x2="81.595" y2="139.176"/> <line fill="none" stroke="#FF7D25" stroke-width="0.8988" stroke-miterlimit="10" x1="72.803" y1="137.376" x2="78.1" y2="142.672"/> <line fill="none" stroke="#FF7D25" stroke-width="0.8988" stroke-miterlimit="10" x1="69.308" y1="140.871" x2="74.604" y2="146.167"/> <line fill="none" stroke="#FF7D25" stroke-width="0.8988" stroke-miterlimit="10" x1="65.812" y1="144.366" x2="71.108" y2="149.662"/> <line fill="none" stroke="#FF7D25" stroke-width="0.8988" stroke-miterlimit="10" x1="62.317" y1="147.861" x2="67.613" y2="153.158"/> <line fill="none" stroke="#FF7D25" stroke-width="0.8988" stroke-miterlimit="10" x1="58.821" y1="151.357" x2="64.117" y2="156.652"/> <line fill="none" stroke="#FF7D25" stroke-width="0.8988" stroke-miterlimit="10" x1="55.326" y1="154.853" x2="60.622" y2="160.148"/> </g> <g> <line fill="none" stroke="#FF7D25" stroke-width="1.7975" stroke-miterlimit="10" x1="149.77" y1="53.425" x2="158.668" y2="62.321"/> <line fill="none" stroke="#FF7D25" stroke-width="1.7975" stroke-miterlimit="10" x1="135.788" y1="67.406" x2="144.686" y2="76.303"/> <line fill="none" stroke="#FF7D25" stroke-width="1.7975" stroke-miterlimit="10" x1="121.807" y1="81.388" x2="130.705" y2="90.284"/> <line fill="none" stroke="#FF7D25" stroke-width="1.7975" stroke-miterlimit="10" x1="107.824" y1="95.369" x2="116.723" y2="104.266"/> <line fill="none" stroke="#FF7D25" stroke-width="1.7975" stroke-miterlimit="10" x1="93.844" y1="109.352" x2="102.74" y2="118.248"/> <line fill="none" stroke="#FF7D25" stroke-width="1.7975" stroke-miterlimit="10" x1="79.861" y1="123.333" x2="88.76" y2="132.229"/> <line fill="none" stroke="#FF7D25" stroke-width="1.7975" stroke-miterlimit="10" x1="65.88" y1="137.314" x2="74.777" y2="146.211"/> <line fill="none" stroke="#FF7D25" stroke-width="1.7975" stroke-miterlimit="10" x1="51.898" y1="151.296" x2="60.796" y2="160.192"/> </g> <path fill="#FF7D25" stroke="#FF7D25" stroke-width="3.6981" stroke-miterlimit="10" d="M58.334,63.158l-9.216-9.213
	c-0.461-0.462-0.573-1.099-0.253-1.421l6.644-6.647c0.32-0.317,0.958-0.205,1.422,0.257l9.213,9.215L58.334,63.158z"/> <line fill="none" stroke="#FFFFFF" stroke-width="1.7" stroke-miterlimit="10" x1="51.489" y1="69.506" x2="75.177" y2="45.818"/> </symbol><symbol viewBox="0 0 210 210" id="icon-development"><title>development</title> <circle fill="#FFFFFF" stroke="#FF7D25" stroke-width="10" stroke-linecap="round" stroke-miterlimit="10" cx="104.209" cy="103.911" r="95.283"/> <g> <g> <polygon fill="#FF7D25" points="182.544,103.885 140.492,145.925 140.492,132.646 169.238,103.885 140.492,75.124 140.492,61.848 
					"/> </g> </g> <g> <g> <polygon fill="#FF7D25" points="26.43,103.885 68.48,145.925 68.48,132.646 39.736,103.885 68.48,75.124 68.48,61.848 		"/> </g> </g> <g> <g> <polygon fill="#FF7D25" points="124.131,56.164 95.021,153.182 86.207,153.182 115.532,56.164 		"/> </g> </g> </symbol><symbol viewBox="0 0 148.003 148" id="icon-f-transform"><title>f-transform</title> <path id="f-transform-f1" d="M35.882,67.748l-0.057,69.061c-0.005,5.422,4.391,9.822,9.815,9.826h0.006
		c5.422,0,9.816-4.393,9.824-9.811l0.055-69.071c0,0-1.399-17.924,13.943-33.268c14.812-14.812,32.792-13.5,32.792-13.5
		c8.082,0,9.916-6.75,9.916-9.667v-0.106c-0.416-7.333-5.709-9.811-9.834-9.811c0,0-25.73-1.773-46.854,19.352
		C34.364,41.878,35.882,67.748,35.882,67.748z"> <animate id="f-transform-animation-to-x1" begin="indefinite" attributeName="d" dur="150ms" fill="" to="M61.679,72.466l-48.67,48.591c-3.836,3.832-3.841,10.051-0.007,13.891l0.004,0.004
		c3.834,3.833,10.047,3.835,13.883,0.01l48.675-48.6l27.387-27.464l32.039-31.958c3.836-3.831,3.842-10.051,0.008-13.891
		l-0.004-0.004c-3.834-3.834-10.047-3.835-13.883-0.009L89.066,45L61.679,72.466z"/> </path> <path id="f-transform-f2" d="M87.191,66.648l0.396,0.313c-4.236-4.244-11.115-4.25-15.364-0.008l-0.006,0.004
		c-4.24,4.242-4.242,11.115-0.009,15.357l-0.395-0.305l0.289,0.203l0.123,0.213c4.24,4.244,11.119,4.25,15.367,0.008l0.004-0.004
		c4.24-4.24,4.242-11.113,0.012-15.357l-0.133-0.219L87.191,66.648z"> <animate id="f-transform-animation-to-x2" begin="indefinite" attributeName="d" dur="150ms" fill="" to="M75.532,61.679l-48.591-48.67c-3.831-3.836-10.051-3.841-13.89-0.007l-0.004,0.004
		c-3.833,3.834-3.835,10.047-0.009,13.883l48.598,48.675l27.465,27.387l31.957,32.039c3.832,3.836,10.051,3.842,13.892,0.008
		l0.004-0.004c3.834-3.834,3.835-10.047,0.009-13.883l-31.965-32.045L75.532,61.679z"/> </path> </symbol><symbol viewBox="0.547 0.455 76.583 145.3" id="icon-f"><title>f</title> <path d="M55.601,73.751c0-6.012-4.868-10.878-10.873-10.878c-6.01,0-10.879,4.867-10.879,10.878
	c0,6.004,4.869,10.877,10.879,10.877C50.732,84.63,55.601,79.757,55.601,73.751"/> <path d="M10.369,145.755h-0.006c-5.426-0.004-9.82-4.405-9.816-9.828l0.055-68.773
	c0-36.773,29.926-66.699,66.707-66.699c5.424,0,9.821,4.399,9.821,9.822c0,5.425-4.397,9.822-9.821,9.822
	c-25.951,0-47.062,21.113-47.062,47.062l-0.055,68.783C20.185,141.363,15.791,145.755,10.369,145.755"/> </symbol><symbol viewBox="0.546 0.419 404.575 146.581" id="icon-floatgradient"><title>floatgradient</title>  <path fill="url(#floatgradient-linearGradient)" d="M404.782,74.176c0-6.013-4.867-10.879-10.873-10.879c-6.008,0-10.877,4.867-10.877,10.879
	c0,6.006,4.869,10.879,10.877,10.879C399.915,85.055,404.782,80.182,404.782,74.176 M370.838,104.062
	c0,15.805,9.314,25.688,25.688,25.688l0.266-0.021c4.605,0,8.33,3.729,8.33,8.332c0,4.602-3.729,8.33-8.33,8.33l-0.756,0.096
	c-26.02,0-42.418-14.898-42.418-40.654l-0.029-0.967l-0.004-95.861c0-4.745,3.854-8.585,8.596-8.585c4.746,0,8.598,3.84,8.598,8.585
	l-0.014,94.066L370.838,104.062z M328.899,96.667c-3.711-19.239-20.191-33.73-39.961-33.73c-22.52,0-40.75,18.78-40.75,41.95
	s18.23,41.95,40.75,41.95c8.471,0,16.34-2.659,22.859-7.221c0.881,4.051,4.49,7.09,8.801,7.09c4.971,0,9-4.028,9-9v-35.59
	C329.489,100.267,329.249,98.447,328.899,96.667z M288.188,127.967c-11.879,0-21.5-10.521-21.5-23.5s9.621-23.5,21.5-23.5
	c11.871,0,21.5,10.521,21.5,23.5S300.059,127.967,288.188,127.967z M187.209,62.617c-22.271,0-40.301,18.811-40.301,42.009
	c0,23.201,18.031,42.011,40.301,42.011c22.25,0,40.312-18.81,40.312-42.011C227.522,81.428,209.459,62.617,187.209,62.617z
	 M187.209,128.037c-12.021,0-21.755-10.479-21.755-23.41c0-12.93,9.734-23.409,21.755-23.409c12.012,0,21.754,10.479,21.754,23.409
	C208.963,117.557,199.221,128.037,187.209,128.037z M110.015,147c-4.971,0-9-4.028-9-9V9.499c0-4.971,4.029-9,9-9
	c4.971,0,9,4.029,9,9V138C119.015,142.971,114.985,147,110.015,147z M55.601,73.751c0-6.012-4.868-10.878-10.873-10.878
	c-6.01,0-10.879,4.867-10.879,10.878c0,6.004,4.869,10.877,10.879,10.877C50.732,84.63,55.601,79.757,55.601,73.751 M10.369,145.755
	h-0.006c-5.426-0.004-9.82-4.405-9.816-9.827l0.055-68.774c0-36.773,29.926-66.699,66.707-66.699c5.424,0,9.821,4.399,9.821,9.822
	c0,5.425-4.397,9.822-9.821,9.822c-25.951,0-47.062,21.113-47.062,47.062l-0.055,68.783
	C20.185,141.363,15.791,145.755,10.369,145.755"/> </symbol><symbol viewBox="0.546 0.419 404.575 146.581" id="icon-floatlogo"><title>floatlogo</title> <path fill="#ff7d25" d="M404.782,74.176c0-6.013-4.867-10.879-10.873-10.879c-6.008,0-10.877,4.867-10.877,10.879
	c0,6.006,4.869,10.879,10.877,10.879C399.915,85.055,404.782,80.182,404.782,74.176 M370.838,104.062
	c0,15.805,9.314,25.688,25.688,25.688l0.266-0.021c4.605,0,8.33,3.729,8.33,8.332c0,4.602-3.729,8.33-8.33,8.33l-0.756,0.096
	c-26.02,0-42.418-14.898-42.418-40.654l-0.029-0.967l-0.004-95.861c0-4.745,3.854-8.585,8.596-8.585c4.746,0,8.598,3.84,8.598,8.585
	l-0.014,94.066L370.838,104.062z M328.899,96.667c-3.711-19.239-20.191-33.73-39.961-33.73c-22.52,0-40.75,18.78-40.75,41.95
	s18.23,41.95,40.75,41.95c8.471,0,16.34-2.659,22.859-7.221c0.881,4.051,4.49,7.09,8.801,7.09c4.971,0,9-4.028,9-9v-35.59
	C329.489,100.267,329.249,98.447,328.899,96.667z M288.188,127.967c-11.879,0-21.5-10.521-21.5-23.5s9.621-23.5,21.5-23.5
	c11.871,0,21.5,10.521,21.5,23.5S300.059,127.967,288.188,127.967z M187.209,62.617c-22.271,0-40.301,18.811-40.301,42.009
	c0,23.201,18.031,42.011,40.301,42.011c22.25,0,40.312-18.81,40.312-42.011C227.522,81.428,209.459,62.617,187.209,62.617z
	 M187.209,128.037c-12.021,0-21.755-10.479-21.755-23.41c0-12.93,9.734-23.409,21.755-23.409c12.012,0,21.754,10.479,21.754,23.409
	C208.963,117.557,199.221,128.037,187.209,128.037z M110.015,147c-4.971,0-9-4.028-9-9V9.499c0-4.971,4.029-9,9-9
	c4.971,0,9,4.029,9,9V138C119.015,142.971,114.985,147,110.015,147z M55.601,73.751c0-6.012-4.868-10.878-10.873-10.878
	c-6.01,0-10.879,4.867-10.879,10.878c0,6.004,4.869,10.877,10.879,10.877C50.732,84.63,55.601,79.757,55.601,73.751 M10.369,145.755
	h-0.006c-5.426-0.004-9.82-4.405-9.816-9.827l0.055-68.774c0-36.773,29.926-66.699,66.707-66.699c5.424,0,9.821,4.399,9.821,9.822
	c0,5.425-4.397,9.822-9.821,9.822c-25.951,0-47.062,21.113-47.062,47.062l-0.055,68.783
	C20.185,141.363,15.791,145.755,10.369,145.755"/> </symbol><symbol viewBox="0 0 210 210" id="icon-graphics"><title>graphics</title> <g>  <use xlink:href="#graphics-SVGID_39_" overflow="visible" fill="#FFFFFF"/> <clipPath id="graphics-SVGID_2_"> <use xlink:href="#graphics-SVGID_39_" overflow="visible"/> </clipPath> <use xlink:href="#graphics-SVGID_39_" overflow="visible" fill="none" stroke="#FF7D25" stroke-width="10" stroke-miterlimit="10"/> </g> <g> <path fill="#F99450" d="M137.816,19.524l-32.8,47.748l35.773,24.568l0.01,0.012l32.617-47.506c0,0-5.201-6.885-15.354-14.184
		C147.911,22.866,137.816,19.524,137.816,19.524z"/> <polygon fill="#FFFFFF" points="100.571,74.591 94.651,110.151 94.641,110.161 104.991,117.272 135.881,98.841 	"/> <polygon fill="#FFFFFF" points="100.571,74.591 94.651,110.151 94.641,110.161 104.991,117.272 135.881,98.841 	"/> <path fill="#FF7D25" d="M104.861,5.821c-54.75,0-99.28,44.541-99.28,99.291c0,54.74,44.53,99.279,99.28,99.279
		c54.74,0,99.28-44.539,99.28-99.279C204.141,50.362,159.601,5.821,104.861,5.821z M173.081,44.462l-32.17,46.85l-0.01-0.01
		l-35.25-24.211l32.33-47.1c1.905,0.746,10.938,4.543,18.906,10.094C166.668,36.897,173.071,44.452,173.081,44.462z M135.881,98.841
		l-30.891,18.432l-10.35-7.111l0.01-0.01l5.92-35.561L135.881,98.841z M104.861,196.392c-50.34,0-91.28-40.949-91.28-91.279
		c0-50.34,40.94-91.291,91.28-91.291c8.36,0,16.46,1.131,24.15,3.25L95.621,65.692c-0.59,0.859-0.84,1.84-0.79,2.789
		c0,0-11.52,69.211-11.529,69.26c-0.12,0.771,0.41,1.49,1.189,1.611l50.13,7.68l-89.21,11.82l116.551,17.41
		C146.321,188.853,126.451,196.392,104.861,196.392z M169.721,169.263l-86.36-10.391l69.33-9.18l19.62-2.602l-19.61-2.369
		l-67.42-8.131l59.21-35.148v-0.021c0.521-0.318,0.96-0.738,1.32-1.25l33.16-48.279c10.8,14.99,17.17,33.371,17.17,53.221
		C196.141,130.103,186.051,152.772,169.721,169.263z"/> </g> </symbol><symbol viewBox="0 0 210 210" id="icon-identify"><title>identify</title> <circle fill="#FFFFFF" cx="104.354" cy="103.953" r="95.195"/> <circle fill="none" stroke="#FF7D25" stroke-width="7" stroke-miterlimit="10" cx="115.847" cy="92.383" r="57.788"/> <line fill="none" stroke="#FF7D25" stroke-width="10" stroke-miterlimit="10" x1="76.587" y1="134.731" x2="38.525" y2="172.791"/> <path fill="none" stroke="#FF7D25" stroke-width="10" stroke-miterlimit="10" d="M64.994,158.61l-20.33,20.329
	c-4.62-3.659-8.89-7.76-12.74-12.21l20.591-20.59c3.449-3.45,9.029-3.45,12.479,0C68.435,149.58,68.435,155.17,64.994,158.61z"/> <path fill="none" stroke="#FF7D25" stroke-width="10" stroke-miterlimit="10" d="M199.225,104.34c0,52.62-42.66,95.29-95.28,95.29
	c-22.4,0-43.01-7.74-59.28-20.69c-4.62-3.659-8.89-7.76-12.74-12.21c-14.5-16.72-23.27-38.529-23.27-62.39
	c0-52.62,42.66-95.28,95.29-95.28C156.564,9.06,199.225,51.72,199.225,104.34z"/> </symbol><symbol viewBox="0 0 1792 2532" id="icon-ipad"><title>ipad</title> <circle fill="#FF7D25" cx="896.43" cy="133.452" r="16"/> <circle fill="#FF7D25" cx="854.46" cy="132.876" r="7.434"/> <circle fill="none" stroke="#FF7D25" stroke-width="15" stroke-miterlimit="10" cx="897.892" cy="2406.45" r="56.555"/> <path fill="#fafafa" stroke="#FF7D25" stroke-width="23" stroke-miterlimit="10" d="M1773.292,2417.243
	c0,52.887-42.873,95.762-95.76,95.762H113.556c-52.887,0-95.76-42.875-95.76-95.762V118.187c0-52.887,42.873-95.76,95.76-95.76
	h1563.977c52.887,0,95.76,42.873,95.76,95.76L1773.292,2417.243L1773.292,2417.243z"/> <rect x="120.618" y="238.816" fill="none" stroke="#FF7D25" stroke-width="9" stroke-miterlimit="10" width="1554.156" height="2059.34"/> <image id="ipad-screen" class="tablet-screen" x="120.618" y="245.816" width="1554.156" height="2050.34" xlink:href="images/forge-tablet.jpg"/> </symbol><symbol viewBox="0 0 1084 2220" id="icon-iphone"><title>iphone</title> <path fill="#fafafa" stroke="#FF7D25" stroke-width="23" stroke-miterlimit="10" d="M1061.62,2059.902
	c0,78.68-63.779,142.459-142.457,142.459H167.578c-78.678,0-142.458-63.779-142.458-142.459V165.707
	c0-78.679,63.78-142.459,142.458-142.459h751.585c78.678,0,142.457,63.78,142.457,142.459V2059.902z"/> <line fill="none" stroke="#FF7D25" stroke-width="15" stroke-linecap="round" stroke-miterlimit="10" x1="465.517" y1="149.818" x2="621.503" y2="149.818"/> <circle fill="#FF7D25" cx="372.438" cy="149.531" r="19.499"/> <path fill="none" stroke="#FF7D25" stroke-width="14" stroke-miterlimit="10" d="M624.009,2076.139
	c0-44.731-36.264-80.996-80.987-80.996c-44.732,0-80.996,36.265-80.996,80.996c0,44.734,36.264,80.996,80.996,80.996
	C587.745,2157.135,624.009,2120.873,624.009,2076.139z"/> <rect x="64" y="264" fill="none" stroke="#FF7D25" stroke-width="9" stroke-miterlimit="10" width="956" height="1688"/> <image id="iphone-screen" class="phone-screen" x="66" y="266" width="954" height="1682" xlink:href="images/forge-phone.jpg"/> </symbol><symbol viewBox="0 0 4061.188 2399.521" id="icon-macbook"><title>macbook</title> <path fill="#fafafa" stroke="#FF7D25" stroke-width="23" stroke-miterlimit="10" d="M4036.967,2255.676v66.58
	c0,0-50.92,50.92-164.49,50.92c-113.58,0-1775.18,0-1775.18,0h-52.33c0,0-1742.79,0-1856.37,0c-113.57,0-164.49-50.92-164.49-50.92
	v-66.58H4036.967z"/> <path fill="#fafafa" stroke="#FF7D25" stroke-width="23" stroke-miterlimit="10" d="M2083.791,2256.159h1637.047V117.336
	c0,0,7.832-99.867-99.867-99.867c-107.701,0-1603.758,0-1603.758,0h-139.915c0,0-1328.391,0-1436.092,0
	c-107.699,0-99.867,99.867-99.867,99.867v2138.823h1637.047H2083.791z"/> <circle fill="#FF7D25" cx="2043.009" cy="94.15" r="22"/> <path fill="none" stroke="#FF7D25" stroke-width="23" stroke-miterlimit="10" d="M2308.177,2255.676
	c-15.34,47.13-59.88,42.33-59.88,42.33h-433c0,0-44.76,5.51-60-42.33H2308.177z"/> <rect x="503.18" y="164.971" fill="none" stroke="#FF7D25" stroke-width="8.9789" stroke-miterlimit="10" width="3059.381" height="1910.615"/> <image id="macbook-screen" class="desktop-screen" x="486.18" y="170.971" width="3095.381" height="1900.615" xlink:href="images/forge-desktop.jpg"/> </symbol><symbol viewBox="61.933 20.331 86.75 107.642" id="icon-mission-mobile"><title>mission-mobile</title> <rect x="92.625" y="86.632" fill="#FF7D25" stroke="#FF7D25" stroke-width="4" stroke-miterlimit="10" width="25.213" height="37.808"/> <polygon fill="#FF7D25" stroke="#FF7D25" stroke-width="4" stroke-miterlimit="10" points="105,25.054 92.621,52.031 92.621,94.08 
	117.841,94.08 117.841,52.031 "/> <path fill="#FFFFFF" stroke="#FFFFFF" stroke-width="3.5304" stroke-miterlimit="10" d="M105.175,67.933
	c-3.11,0-5.631-2.519-5.631-5.646c0-3.11,2.521-5.645,5.631-5.645c3.127,0,5.646,2.534,5.646,5.645
	C110.82,65.414,108.302,67.933,105.175,67.933z"/> <polygon fill="#FF7D25" stroke="#FF7D25" stroke-width="4" stroke-miterlimit="10" points="84.605,99.376 65.796,125.973 
	84.605,125.973 "/> <polygon fill="#FF7D25" stroke="#FF7D25" stroke-width="4" stroke-miterlimit="10" points="126.005,99.376 144.818,125.973 
	126.005,125.973 "/> </symbol><symbol viewBox="0 0 210 210" id="icon-performanceAlt"><title>performanceAlt</title> <g>  <use xlink:href="#performanceAlt-SVGID_111_" overflow="visible" fill="#FFFFFF"/> <clipPath id="performanceAlt-SVGID_2_"> <use xlink:href="#performanceAlt-SVGID_111_" overflow="visible"/> </clipPath> <g clip-path="url(#performanceAlt-SVGID_2_)"> <path fill="none" stroke="#F99450" stroke-width="8" stroke-miterlimit="10" d="M-17.823,74.281c0,0,17.432,104.869,29.883,73.352
			S34.245,39.898,44.433,65.684l2.037,8.598c0,0,17.432,104.869,29.883,73.352s22.186-107.734,32.373-81.949l2.815,8.598
			c0,0,17.431,104.869,29.882,73.352s22.186-107.734,32.373-81.949l2.037,8.598c0,0,17.432,104.869,29.883,73.352
			s22.186-107.734,32.373-81.949"/> <polyline fill="none" stroke="#FF7D25" stroke-width="8.691" stroke-miterlimit="10" points="242.961,130.995 207.622,85.91 
			169.985,130.995 134.943,85.91 97.146,130.995 61.809,85.91 24.169,130.995 -11.17,85.91 -49.154,130.995 		"/> </g> <use xlink:href="#performanceAlt-SVGID_111_" overflow="visible" fill="none" stroke="#FF7D25" stroke-width="10" stroke-miterlimit="10"/> </g> </symbol><symbol viewBox="0 0 210 210" id="icon-photography"><title>photography</title> <circle fill="#FFFFFF" stroke="#FF7D25" stroke-width="10" stroke-linecap="round" stroke-miterlimit="10" cx="104.819" cy="105.391" r="95.283"/> <path fill="#F99450" stroke="#FF7D25" stroke-width="7" stroke-linecap="round" stroke-miterlimit="10" d="M170.584,71.138v71.621
	c0,2.136-1.521,3.858-5.057,3.858H46.524c-3.541,0-5.059-1.723-5.059-3.858V71.138c0-2.132,1.518-3.857,5.059-3.857h38.196v-9.171
	c0-3.052,2.474-5.529,5.531-5.529h31.549c3.056,0,5.529,2.478,5.529,5.529v9.171h38.197
	C169.063,67.28,170.584,69.006,170.584,71.138z"/> <rect x="47.549" y="63.883" fill="#FFFFFF" stroke="#FF7D25" stroke-width="7" stroke-linecap="round" stroke-miterlimit="10" width="18.597" height="3.962"/> <g>  <use xlink:href="#photography-SVGID_55_" overflow="visible" fill="#F99450"/> <clipPath id="photography-SVGID_2_"> <use xlink:href="#photography-SVGID_55_" overflow="visible"/> </clipPath> <use xlink:href="#photography-SVGID_55_" overflow="visible" fill="none" stroke="#FF7D25" stroke-width="8" stroke-miterlimit="10"/> </g> <g> <path fill="#FFFFFF" d="M105.287,70.587c18.854,0,34.191,15.339,34.191,34.193c0,18.853-15.338,34.189-34.191,34.189
		s-34.191-15.337-34.191-34.189C71.096,85.926,86.434,70.587,105.287,70.587 M105.287,64.587c-22.197,0-40.191,17.994-40.191,40.193
		c0,22.196,17.994,40.189,40.191,40.189s40.191-17.993,40.191-40.189C145.479,82.581,127.484,64.587,105.287,64.587L105.287,64.587z
		"/> </g> </symbol><symbol viewBox="41.188 42.292 126.217 123.016" id="icon-process-mobile"><title>process-mobile</title> <g> <g> <polygon id="process-mobile-SVGID_113_" fill="#FF7D25" points="69.599,57.644 157.078,145.215 165.3,162.514 147.956,154.322 60.476,66.753 		
			"/> </g> <g>  <clipPath id="process-mobile-SVGID_3_"> <use xlink:href="#process-mobile-SVGID_2_" overflow="visible"/> </clipPath> <polygon clip-path="url(#process-mobile-SVGID_3_)" fill="#FFFFFF" points="166.268,155.564 157.951,163.72 146.311,155.82 159.104,143.032 		"/> </g> <g> <defs> <polygon id="process-mobile-SVGID_4_" points="69.599,57.644 157.078,145.215 165.3,162.514 147.956,154.322 60.476,66.753 			"/> </defs> <clipPath id="process-mobile-SVGID_5_"> <use xlink:href="#process-mobile-SVGID_4_" overflow="visible"/> </clipPath> <polygon clip-path="url(#process-mobile-SVGID_5_)" fill="#FF7D25" points="159.232,159.707 162.377,155.977 166.611,163.753 		"/> </g> <g> <polygon id="process-mobile-SVGID_1_" fill="none" stroke="#FF7D25" stroke-width="2" stroke-miterlimit="10" points="69.599,57.644 
			157.078,145.215 165.3,162.514 147.956,154.322 60.476,66.753 		"/> </g> </g> <g> <rect x="57.751" y="93.426" transform="matrix(0.7071 -0.7071 0.7071 0.7071 -45.3902 102.2693)" fill="#F99450" width="86.008" height="25"/> <path fill="#FFFFFF" d="M122.323,69.855l14.5,14.5l-57.64,57.64l-14.5-14.5L122.323,69.855 M122.323,63.5l-3.179,3.178
		l-57.64,57.641l-3.178,3.178l3.178,3.178l14.5,14.5l3.178,3.178l3.178-3.178l57.64-57.64l3.179-3.178l-3.179-3.178l-14.5-14.5
		L122.323,63.5L122.323,63.5z"/> </g> <rect x="93.109" y="30.401" transform="matrix(0.7071 0.7071 -0.7071 0.7071 103.4791 -42.2146)" fill="#FFFFFF" stroke="#FF7D25" stroke-width="4" stroke-miterlimit="10" width="19.173" height="146.798"/> <g> <line fill="none" stroke="#FF7D25" stroke-width="0.8988" stroke-miterlimit="10" x1="153.197" y1="56.981" x2="158.493" y2="62.276"/> <line fill="none" stroke="#FF7D25" stroke-width="0.8988" stroke-miterlimit="10" x1="149.701" y1="60.478" x2="154.998" y2="65.771"/> <line fill="none" stroke="#FF7D25" stroke-width="0.8988" stroke-miterlimit="10" x1="146.207" y1="63.973" x2="151.502" y2="69.268"/> <line fill="none" stroke="#FF7D25" stroke-width="0.8988" stroke-miterlimit="10" x1="142.711" y1="67.468" x2="148.007" y2="72.763"/> <line fill="none" stroke="#FF7D25" stroke-width="0.8988" stroke-miterlimit="10" x1="139.216" y1="70.963" x2="144.512" y2="76.258"/> <line fill="none" stroke="#FF7D25" stroke-width="0.8988" stroke-miterlimit="10" x1="135.721" y1="74.459" x2="141.016" y2="79.754"/> <line fill="none" stroke="#FF7D25" stroke-width="0.8988" stroke-miterlimit="10" x1="132.225" y1="77.954" x2="137.521" y2="83.249"/> <line fill="none" stroke="#FF7D25" stroke-width="0.8988" stroke-miterlimit="10" x1="128.73" y1="81.449" x2="134.025" y2="86.744"/> <line fill="none" stroke="#FF7D25" stroke-width="0.8988" stroke-miterlimit="10" x1="125.234" y1="84.945" x2="130.529" y2="90.24"/> <line fill="none" stroke="#FF7D25" stroke-width="0.8988" stroke-miterlimit="10" x1="121.738" y1="88.439" x2="127.034" y2="93.735"/> <line fill="none" stroke="#FF7D25" stroke-width="0.8988" stroke-miterlimit="10" x1="118.243" y1="91.936" x2="123.539" y2="97.23"/> <line fill="none" stroke="#FF7D25" stroke-width="0.8988" stroke-miterlimit="10" x1="114.748" y1="95.432" x2="120.044" y2="100.727"/> <line fill="none" stroke="#FF7D25" stroke-width="0.8988" stroke-miterlimit="10" x1="111.252" y1="98.926" x2="116.549" y2="104.222"/> <line fill="none" stroke="#FF7D25" stroke-width="0.8988" stroke-miterlimit="10" x1="107.757" y1="102.422" x2="113.053" y2="107.717"/> <line fill="none" stroke="#FF7D25" stroke-width="0.8988" stroke-miterlimit="10" x1="104.262" y1="105.917" x2="109.559" y2="111.213"/> <line fill="none" stroke="#FF7D25" stroke-width="0.8988" stroke-miterlimit="10" x1="100.767" y1="109.412" x2="106.062" y2="114.708"/> <line fill="none" stroke="#FF7D25" stroke-width="0.8988" stroke-miterlimit="10" x1="97.271" y1="112.908" x2="102.566" y2="118.203"/> <line fill="none" stroke="#FF7D25" stroke-width="0.8988" stroke-miterlimit="10" x1="93.775" y1="116.402" x2="99.071" y2="121.699"/> <line fill="none" stroke="#FF7D25" stroke-width="0.8988" stroke-miterlimit="10" x1="90.28" y1="119.898" x2="95.576" y2="125.193"/> <line fill="none" stroke="#FF7D25" stroke-width="0.8988" stroke-miterlimit="10" x1="86.785" y1="123.395" x2="92.081" y2="128.689"/> <line fill="none" stroke="#FF7D25" stroke-width="0.8988" stroke-miterlimit="10" x1="83.289" y1="126.891" x2="88.585" y2="132.186"/> <line fill="none" stroke="#FF7D25" stroke-width="0.8988" stroke-miterlimit="10" x1="79.794" y1="130.385" x2="85.09" y2="135.68"/> <line fill="none" stroke="#FF7D25" stroke-width="0.8988" stroke-miterlimit="10" x1="76.299" y1="133.881" x2="81.595" y2="139.176"/> <line fill="none" stroke="#FF7D25" stroke-width="0.8988" stroke-miterlimit="10" x1="72.803" y1="137.376" x2="78.1" y2="142.672"/> <line fill="none" stroke="#FF7D25" stroke-width="0.8988" stroke-miterlimit="10" x1="69.308" y1="140.871" x2="74.604" y2="146.167"/> <line fill="none" stroke="#FF7D25" stroke-width="0.8988" stroke-miterlimit="10" x1="65.812" y1="144.366" x2="71.108" y2="149.662"/> <line fill="none" stroke="#FF7D25" stroke-width="0.8988" stroke-miterlimit="10" x1="62.317" y1="147.861" x2="67.613" y2="153.158"/> <line fill="none" stroke="#FF7D25" stroke-width="0.8988" stroke-miterlimit="10" x1="58.821" y1="151.357" x2="64.117" y2="156.652"/> <line fill="none" stroke="#FF7D25" stroke-width="0.8988" stroke-miterlimit="10" x1="55.326" y1="154.854" x2="60.622" y2="160.148"/> </g> <g> <line fill="none" stroke="#FF7D25" stroke-width="1.7975" stroke-miterlimit="10" x1="149.77" y1="53.425" x2="158.668" y2="62.321"/> <line fill="none" stroke="#FF7D25" stroke-width="1.7975" stroke-miterlimit="10" x1="135.788" y1="67.406" x2="144.686" y2="76.303"/> <line fill="none" stroke="#FF7D25" stroke-width="1.7975" stroke-miterlimit="10" x1="121.807" y1="81.388" x2="130.705" y2="90.284"/> <line fill="none" stroke="#FF7D25" stroke-width="1.7975" stroke-miterlimit="10" x1="107.824" y1="95.369" x2="116.723" y2="104.266"/> <line fill="none" stroke="#FF7D25" stroke-width="1.7975" stroke-miterlimit="10" x1="93.844" y1="109.352" x2="102.74" y2="118.248"/> <line fill="none" stroke="#FF7D25" stroke-width="1.7975" stroke-miterlimit="10" x1="79.861" y1="123.333" x2="88.76" y2="132.229"/> <line fill="none" stroke="#FF7D25" stroke-width="1.7975" stroke-miterlimit="10" x1="65.88" y1="137.314" x2="74.777" y2="146.211"/> <line fill="none" stroke="#FF7D25" stroke-width="1.7975" stroke-miterlimit="10" x1="51.898" y1="151.296" x2="60.796" y2="160.191"/> </g> <path fill="#FF7D25" stroke="#FF7D25" stroke-width="3.6981" stroke-miterlimit="10" d="M58.334,63.158l-9.216-9.213
	c-0.461-0.462-0.573-1.099-0.253-1.421l6.644-6.647c0.32-0.317,0.958-0.205,1.422,0.257l9.213,9.215L58.334,63.158z"/> <line fill="none" stroke="#FFFFFF" stroke-width="1.7" stroke-miterlimit="10" x1="51.489" y1="69.506" x2="75.177" y2="45.818"/> </symbol><symbol viewBox="0 0 210 210" id="icon-responsive"><title>responsive</title> <g>  <defs> <path id="responsive-SVGID_38_" d="M104.107,206.501c-55.296,0-100.283-44.987-100.283-100.283S48.811,5.935,104.107,5.935
			S204.39,50.922,204.39,106.218S159.403,206.501,104.107,206.501z M104.107,15.935c-49.782,0-90.283,40.501-90.283,90.283
			s40.501,90.283,90.283,90.283S194.39,156,194.39,106.218S153.889,15.935,104.107,15.935z"/> </defs> <use xlink:href="#responsive-SVGID_37_" overflow="visible" fill="#FFFFFF"/> <use xlink:href="#responsive-SVGID_38_" overflow="visible" fill="#FF7D25"/> <clipPath id="responsive-SVGID_2_"> <use xlink:href="#responsive-SVGID_37_" overflow="visible"/> </clipPath> <clipPath id="responsive-SVGID_4_" clip-path="url(#responsive-SVGID_2_)"> <use xlink:href="#responsive-SVGID_38_" overflow="visible"/> </clipPath> </g> <g> <rect x="66.264" y="62.092" fill="#FFFFFF" width="105.632" height="69.479"/> <path fill="#FF7D25" d="M171.896,135.071H66.264c-1.933,0-3.5-1.567-3.5-3.5V62.092c0-1.933,1.567-3.5,3.5-3.5h105.632
		c1.933,0,3.5,1.567,3.5,3.5v69.479C175.396,133.504,173.83,135.071,171.896,135.071z M69.764,128.071h98.632V65.592H69.764V128.071
		z"/> </g> <g> <polygon fill="#FF7D25" points="142.215,149.178 98.748,149.178 98.748,131.201 133.883,131.201 	"/> <path fill="#FF7D25" d="M142.215,152.178H98.748c-1.657,0-3-1.343-3-3v-17.977c0-1.657,1.343-3,3-3h35.135
		c1.168,0,2.23,0.679,2.722,1.738l8.333,17.977c0.431,0.929,0.358,2.014-0.193,2.877
		C144.192,151.655,143.239,152.178,142.215,152.178z M101.748,146.178h35.771l-5.551-11.977h-30.219V146.178z"/> </g> <g> <rect x="74.116" y="70.913" fill="#F99450" width="88.745" height="10.844"/> </g> <g> <rect x="74.116" y="85.467" fill="#F99450" width="88.745" height="38.808"/> </g> <g> <rect x="53.335" y="91.862" fill="#FFFFFF" width="45.204" height="56.991"/> <path fill="#FF7D25" d="M98.54,151.854H53.335c-1.657,0-3-1.343-3-3V91.862c0-1.657,1.343-3,3-3H98.54c1.657,0,3,1.343,3,3v56.991
		C101.54,150.511,100.196,151.854,98.54,151.854z M56.335,145.854H95.54V94.862H56.335V145.854z"/> </g> <g> <rect x="59.919" y="99.41" fill="#F99450" width="32.245" height="8.697"/> </g> <g> <rect x="59.919" y="111.342" fill="#F99450" width="32.245" height="30.871"/> </g> <g> <rect x="36.179" y="105.003" fill="#FFFFFF" width="27.753" height="44.504"/> <path fill="#FF7D25" d="M63.932,152.007H36.179c-1.381,0-2.5-1.119-2.5-2.5v-44.504c0-1.381,1.119-2.5,2.5-2.5h27.753
		c1.381,0,2.5,1.119,2.5,2.5v44.504C66.432,150.888,65.313,152.007,63.932,152.007z M38.679,147.007h22.753v-39.504H38.679V147.007z
		"/> </g> <g> <rect x="41.495" y="111.276" fill="#F99450" width="16.836" height="6.552"/> </g> <g> <rect x="41.495" y="120.588" fill="#F99450" width="16.836" height="22.934"/> </g> </symbol><symbol viewBox="17.593 4.815 66.667 60" id="icon-send"><title>send</title> <path d="M84.26,34.795c0-1.085-0.666-1.76-1.602-2.253C82.602,32.507,19.361,4.921,19.361,4.921
	c-0.162-0.073-0.333-0.106-0.506-0.106c-0.242,0-0.481,0.066-0.691,0.201c-0.357,0.23-0.571,0.627-0.571,1.047v25.017
	c0,0.674,0.534,1.223,1.211,1.249l62.587,2.485l-62.587,2.48c-0.677,0.028-1.211,0.577-1.211,1.252v25.017
	c0,0.418,0.214,0.816,0.571,1.049c0.209,0.132,0.449,0.201,0.691,0.201c0.171,0,0.343-0.034,0.506-0.107l62.607-27.3
	C83.184,36.946,84.26,36.11,84.26,34.795z"/> </symbol><symbol viewBox="10.737 42.16 189.656 124.349" id="icon-services-mobile"><title>services-mobile</title> <path fill="#FF7D25" stroke="#FF7D25" stroke-width="7" stroke-linecap="round" stroke-miterlimit="10" d="M27.958,160.544
	c-6.413-9.666-10.875-20.235-13.378-31.169l63.258-63.257L65.11,53.39l55.069-7.17l-7.34,54.899l-12.729-12.728L27.958,160.544z"/> <path fill="#FF7D25" stroke="#FF7D25" stroke-width="7" stroke-linecap="round" stroke-miterlimit="10" d="M98.951,107.564
	l12.729,12.729l70.146-70.146c6.745,9.207,11.625,19.347,14.638,29.911l-62.509,62.508l12.728,12.729l-55.068,7.155L98.951,107.564z
	"/> </symbol><symbol viewBox="0 0 210 210" id="icon-support"><title>support</title> <circle fill="#FFFFFF" stroke="#FF7D25" stroke-width="10" stroke-linecap="round" stroke-miterlimit="10" cx="104.716" cy="103.768" r="95.283"/> <rect x="92.625" y="86.632" fill="#FF7D25" stroke="#FF7D25" stroke-width="4" stroke-miterlimit="10" width="25.213" height="37.807"/> <polygon fill="#FF7D25" stroke="#FF7D25" stroke-width="4" stroke-miterlimit="10" points="105,25.054 92.621,52.031 92.621,94.08 
	117.841,94.08 117.841,52.031 "/> <path fill="#FFFFFF" stroke="#FFFFFF" stroke-width="3.5304" stroke-miterlimit="10" d="M105.175,67.933
	c-3.11,0-5.631-2.519-5.631-5.646c0-3.11,2.521-5.645,5.631-5.645c3.127,0,5.646,2.534,5.646,5.645
	C110.82,65.414,108.302,67.933,105.175,67.933z"/> <polygon fill="#FF7D25" stroke="#FF7D25" stroke-width="4" stroke-miterlimit="10" points="85.469,105.376 66.66,131.973 
	85.469,131.973 "/> <polygon fill="#FF7D25" stroke="#FF7D25" stroke-width="4" stroke-miterlimit="10" points="125.141,105.376 143.954,131.973 
	125.141,131.973 "/> <path fill="#FF7D25" d="M121.35,146.969c0,2.298-1.037,6.062-2.537,10.353c-0.606-2.312-2.248-3.955-4.162-3.955
	c-2.457,0-4.451,2.68-4.451,5.998c0,2.408,1.068,4.498,2.6,5.439c1.532,0.976,1.382,4.066,0.813,5.55
	c-3.509,8.103-6.874,14.979-6.874,14.979s-1.468-9.332-4.036-14.213c-2.313-4.436-2.393-4.498-0.19-4.498
	c2.199,0,3.986-2.297,3.986-5.137c0-2.823-1.787-5.12-3.986-5.12c-0.208,0-0.415,0.016-0.638,0.064c0.462-1.212,0.7-2.585,0.7-4.021
	c0-5.121-3.11-9.268-6.938-9.268c-2.313,0-4.354,1.483-5.616,3.781c0.033-8.631,7.036-15.616,15.665-15.616
	C114.331,131.307,121.35,138.324,121.35,146.969z"/> <path fill="#FF7D25" d="M95.756,157.774c1.017-1.768,0.082-4.434-2.037-4.434s-3.596,2.417-3.596,6.233
	c0,3.811,2.876,7.86,2.876,7.86S92.52,163.405,95.756,157.774z"/> <path fill="#FF7D25" d="M97.306,171.948c-0.533-0.925-0.044-2.327,1.065-2.327c1.111,0,1.885,1.271,1.885,3.269
	c0,2-1.506,4.121-1.506,4.121S99,174.898,97.306,171.948z"/> </symbol><symbol viewBox="37.43 61.848 132.114 84.542" id="icon-works-mobile"><title>works-mobile</title> <g> <g> <polygon fill="#FF7D25" points="169.544,103.885 127.492,145.925 127.492,132.646 156.238,103.885 127.492,75.124 127.492,61.848 
					"/> </g> </g> <g> <g> <polygon fill="#FF7D25" points="37.43,103.885 79.48,145.925 79.48,132.646 50.736,103.885 79.48,75.124 79.48,61.848 		"/> </g> </g> <g> <g> <polygon fill="#FF7D25" points="119.131,62.164 93.859,146.391 86.207,146.391 111.666,62.164 		"/> </g> </g> </symbol><symbol viewBox="0 0 148.003 148" id="icon-x-transform"><title>x-transform</title> <path id="x-transform-x1" d="M61.679,72.466l-48.67,48.591c-3.836,3.832-3.841,10.051-0.007,13.891l0.004,0.004
		c3.834,3.833,10.047,3.835,13.883,0.01l48.675-48.6l27.387-27.464l32.039-31.958c3.836-3.831,3.842-10.051,0.008-13.891
		l-0.004-0.004c-3.834-3.834-10.047-3.835-13.883-0.009L89.066,45L61.679,72.466z"> <animate id="x-transform-animation-to-f1" begin="indefinite" attributeName="d" dur="150ms" fill="" to="M35.882,67.748l-0.057,69.061c-0.005,5.422,4.391,9.822,9.815,9.826h0.006
		c5.422,0,9.816-4.393,9.824-9.811l0.055-69.071c0,0-1.399-17.924,13.943-33.268c14.812-14.812,32.792-13.5,32.792-13.5
		c8.082,0,9.916-6.75,9.916-9.667v-0.106c-0.416-7.333-5.709-9.811-9.834-9.811c0,0-25.73-1.773-46.854,19.352
		C34.364,41.878,35.882,67.748,35.882,67.748z"/> </path> <path id="x-transform-x2" d="M75.532,61.679l-48.591-48.67c-3.831-3.836-10.051-3.841-13.89-0.007l-0.004,0.004
		c-3.833,3.834-3.835,10.047-0.009,13.883l48.598,48.675l27.465,27.387l31.957,32.039c3.832,3.836,10.051,3.842,13.892,0.008
		l0.004-0.004c3.834-3.834,3.835-10.047,0.009-13.883l-31.965-32.045L75.532,61.679z"> <animate id="x-transform-animation-to-f2" begin="indefinite" attributeName="d" dur="150ms" fill="" to="M87.191,66.648l0.396,0.313c-4.236-4.244-11.115-4.25-15.364-0.008l-0.006,0.004
		c-4.24,4.242-4.242,11.115-0.009,15.357l-0.395-0.305l0.289,0.203l0.123,0.213c4.24,4.244,11.119,4.25,15.367,0.008l0.004-0.004
		c4.24-4.24,4.242-11.113,0.012-15.357l-0.133-0.219L87.191,66.648z"/> </path> </symbol></svg>